<?xml version="1.0" encoding="utf-8"?>
<!-- Generator: Adobe Illustrator 21.0.2, SVG Export Plug-In . SVG Version: 6.00 Build 0)  -->
<svg version="1.1" id="Layer_1" xmlns="http://www.w3.org/2000/svg" xmlns:xlink="http://www.w3.org/1999/xlink" x="0px" y="0px"
	 viewBox="0 0 1008.1 109" style="enable-background:new 0 0 1008.1 109;" xml:space="preserve">
<style type="text/css">
	.st0{clip-path:url(#SVGID_2_);fill:#45403E;}
</style>
<g>
	<defs>
		<rect id="SVGID_1_" y="4.5" width="972.6" height="100"/>
	</defs>
	<clipPath id="SVGID_2_">
		<use xlink:href="#SVGID_1_"  style="overflow:visible;"/>
	</clipPath>
	<path class="st0" d="M337.9,46.8c1.2-2.2,2.4-4.3,3.4-6.5c2.4-5.1,1.2-11.6-2.8-15.6c-0.9-0.9-2-1.8-3.2-2.3
		c-0.7-0.3-1.8,0.2-2.7,0.5c-0.2,0.1-0.2,0.9-0.1,1.3C334.3,31.7,336.1,39.1,337.9,46.8 M340.6,59.1l-0.8,0.6
		c1.7,10.1,3.4,20.2,5.1,30.7c1.7-1.5,3.1-2.7,4.6-3.8c3-2.2,4.9-6.6,3.8-10.2c-1.5-5.1-3.7-9.9-7.4-13.7
		C344.4,61.2,342.3,60.3,340.6,59.1 M381.3,23.4c-0.7,1.4-1.5,2.8-2.1,4.3c-2.3,6.5-2.5,13.3-2.5,20.1c-0.1,5.8,0.1,11.7,0.4,17.5
		c0.3,5.1,1,10.2,1.7,15.3c0.4,2.8,1.1,5.5,1.7,8.8c0.4-1,0.6-1.5,0.8-1.9c3.2-9.2,3.5-18.9,4.3-28.4c0.2-2.1,0.1-4.2,0.1-6.3
		c0.1-4,0.5-8.1,0.2-12.1c-0.3-4.4-1.5-8.7-1.9-13C383.9,25.6,383.3,24.3,381.3,23.4 M365.9,79.7c-0.5,1.7-0.9,3-1.3,4.2
		c-1.4,3.6-4.6,5.7-7.3,7.9c-2.8,2.3-6.1,4.1-9.3,5.9c-3,1.6-6,1.1-9-0.6c-1.7-1-2-2.6-2.4-4.3c-1.5-5.2-3.1-10.5-4.3-15.8
		c-1.2-5.3-2-10.6-2.9-15.9c-1.2-6.5-2.5-13-3.6-19.5c-1.2-6.9-2.2-13.8-3.3-20.6c-0.4-2.2,0.2-2.9,2.7-3.3c3.3-0.6,6.8-1,10.1-0.9
		c8.5,0.2,15.4,3.5,18.6,12.4c2,5.5,0.7,10.7-2.2,15.5c-1.9,3.2-4,6.2-6.1,9.5c10.7,2,15.5,10.1,19.4,19.6c-0.1-2.7-0.3-4.9-0.4-7.1
		c-0.2-5.6-0.5-11.1-0.4-16.7c0.1-6.5,0.5-13,2.1-19.4c1.4-5.7,4.2-10.4,9.9-12.4c3.9-1.4,7.6-0.7,11.4,1.3c6.3,3.2,8,8.9,8.8,15.1
		c0.4,3.2,0.8,6.4,0.8,9.6c0,4.2-0.5,8.3-0.8,12.5c-0.2,2.4-0.3,4.9-0.5,7.3c-0.6,8.3-1.4,16.5-4.3,24.3c-1.7,4.5-3.9,8.6-9.2,9.4
		c-8.6,1.2-12.2-2.2-14.5-9.4C367.2,85.7,366.7,82.8,365.9,79.7"/>
	<path class="st0" d="M718.4,67.6c0.2-2.2,0.6-4.4,0.5-6.6c-0.1-6.9-0.3-13.9-0.4-20.8c-0.1-6.8-1.2-13.3-4-19.5
		c-0.3-0.7-1.2-1.3-1.9-1.6c-1.1-0.4-1.5,0.4-2,1.3c-2,4.1-3.1,8.4-3.4,12.9c-0.4,6.1-0.9,12.3-0.8,18.4c0.2,7.4,0.7,14.9,1.7,22.3
		c0.7,5.3,2.5,10.4,3.8,15.5c0.2,0,0.5-0.1,0.7-0.1c0.5-1.1,1.2-2.1,1.6-3.2c1-2.6,2.2-5.1,0.3-8c-1-1.6-1.5-3.6-2-5.5
		c-0.8-2.9-0.3-3.6,2.5-4.3C716.3,67.9,717.3,67.8,718.4,67.6 M735.5,96.2c-2.1,1.9-4.3,2.2-6.9,1.8c-3-0.4-3.6-2.9-5-5
		c-2.2,2.6-4.9,4.2-8.1,4.6c-6.8,0.9-12.1-0.1-15.9-7.3c-3.1-6-4.9-12.4-5.6-19.1c-0.6-5.9-1.3-11.8-1.7-17.7
		c-0.8-10.4-0.2-20.7,3.4-30.6c2.8-7.6,8.2-12.5,16-14.3c5.1-1.2,9,1,12,5.3c3.9,5.6,6.1,11.8,6.9,18.5c0.6,5,1,10,1.3,15
		c0.3,3.8,0.7,7.7,0.4,11.5c-0.7,7.5-1.8,15-3.1,22.4c-0.4,2.2,0.5,3.6,1.3,5.2C732,89.7,733.7,92.8,735.5,96.2"/>
	<path class="st0" d="M181.3,57c0.4,6.2,0.8,12.4,1.1,18.5c0.3,7.2,0.4,14.5,0.4,21.7c0,1.4-0.6,2.7-2.3,2.9
		c-1.7,0.2-3.4,0.5-5.1,0.3c-1.7-0.2-2.8-1.6-2.9-3.4c-0.3-5.7-0.7-11.5-0.9-17.3c-0.2-6.9-0.3-13.7-0.5-20.6
		c-0.1-6.1-0.3-12.3-0.4-18.4c-0.1-5.4-0.3-10.8-0.4-16.3c-0.1-3.9,0.9-4.9,4.8-5c5.3-0.1,7.2,1.3,9.4,7.6
		c4.5,13.2,8.9,26.4,13.4,39.7c0.2,0.5,0.4,1,0.4,1.1c0-11.9-0.1-24.1,0-36.4c0-3.7,0.4-7.4,0.9-11.2c0.3-2.7,2-4,5-3.9
		c1.2,0,2.5,0.1,3.5,0.7c0.8,0.5,1.7,1.7,1.7,2.6c0,7.2-0.2,14.5-0.4,21.7c-0.1,7.2-0.4,14.3-0.4,21.5c0,10.4,0.3,20.9,0.4,31.3
		c0,0.9-0.4,1.8-0.3,2.7c0.2,2-1.2,2.7-2.7,2.9c-4.8,0.7-7.6,0.7-9.5-4.5c-4.6-12.7-9.5-25.3-14.3-37.9c-0.1-0.2-0.3-0.3-0.4-0.4
		C181.7,56.9,181.5,57,181.3,57"/>
	<path class="st0" d="M825.4,41.2c0,6.6,0.1,13.1,0,19.7c-0.1,6.8-0.2,13.6-0.4,20.4c-0.1,2-0.3,4-0.4,6c0,0.1,0,0.3,0,0.4
		c-0.5,1.7-3.7,3-6.5,2.7c-2.7-0.3-4.2-1.7-4.3-3.9c-0.2-6.9-0.4-13.9-0.4-20.8c0-6.4,0.2-12.9,0.4-19.3c0.1-5.1,0.2-10.3,0.4-15.4
		c0.3-7,0.5-14,0.9-21c0-0.8,0.9-1.9,1.7-2.1c3.9-1.4,9.8-1.5,11.8,4.4c2.7,8,5.7,15.8,8.4,23.8c1.8,5.3,3.3,10.7,5.2,16
		c0.3-4,0.5-8,0.9-12.1c0.8-7.8,0.9-15.7,3-23.3c0.4-1.4,1-2.9,2.7-2.9c2,0,4.3-0.8,5.8,1.1c0.4,0.5,0.5,1.5,0.4,2.2
		c-0.2,3.5-0.5,7-0.8,10.5c-0.6,7.1-1.1,14.2-1.7,21.2c-0.2,2.1-0.4,4.3-0.4,6.5c-0.2,9.3-0.3,18.5-0.5,27.8c0,1-0.4,2-0.3,3
		c0.1,1.9-1,2.6-2.5,2.8c-1.9,0.2-3.9,0.5-5.6,0c-1.2-0.3-2.5-1.7-2.9-2.9c-4.3-12.7-8.3-25.4-12.5-38.2c-0.7-2.2-1.3-4.4-2-6.6
		C825.6,41.2,825.5,41.2,825.4,41.2"/>
	<path class="st0" d="M581.6,54.2c0,8.4,0.1,17.2,0,25.9c0,3.1-0.5,6.1-0.8,9.2c-0.2,1.9-1.6,2.6-3.2,2.8c-0.1,0-0.1,0-0.2,0
		c-4.6,0.2-6.2-0.4-6.4-6.3c-0.3-8.2-0.5-16.5-0.4-24.8c0.1-13.7,0.5-27.5,0.9-41.2c0-0.7,0.6-1.6,1.2-1.9
		c4.5-2.2,10.1-1.8,12.1,4.8c3.9,12.4,7.9,24.8,12,37.4c0-5.7-0.2-11.3,0.1-16.8c0.3-6.7,1.1-13.4,1.7-20.1c0.2-2.8,0.6-5.5,0.9-8.3
		c0-0.3,0-0.6,0.1-0.9c0.6-2,4.8-2.9,8.4-2c2.1,0.6,2.8,2.1,2.4,4.6c-0.2,1.1-0.1,2.2-0.1,3.3c-0.3,7.8-0.6,15.6-0.9,23.4
		c-0.1,2.9-0.3,5.7-0.4,8.6c-0.2,7-0.2,14-0.5,21c-0.2,4.7-0.5,9.5-0.8,14.2c-0.2,2.3-1.4,3.7-3.7,4.3c-4.1,0.9-8.3,0-9.8-4.2
		c-3.8-10.9-8-21.7-12.1-32.5C581.8,54.5,581.6,54.2,581.6,54.2"/>
	<path class="st0" d="M124.3,76.1c0.2,2.6,0.3,4.8,0.5,7c0.4,3.3,0.8,6.5,1.2,9.8c0.3,2.6,0.7,5.2,0.7,7.9c0,0.8-1,2.2-1.7,2.2
		c-2.3,0.3-4.8,0.4-7.1,0c-2.1-0.3-2.3-2.7-2.6-4.3c-1.7-9-3.3-18-4.8-27.1c-1.2-7.2-2.4-14.3-3.4-21.5c-0.8-5.7-1.2-11.4-1.8-17.1
		c-0.3-3.3-0.7-6.6-0.8-9.9c-0.1-4.7,2.7-6.6,7.3-5.4c3.3,0.9,4.1,3.6,4.7,6.2c1.6,7.6,2.9,15.3,4.4,23c0.2,0.8,0.4,1.7,0.7,3
		c1.1-3.4,2.2-6.4,3.2-9.4c2-6.4,4.1-12.8,6-19.3c1.7-5.4,5.5-5.8,9.3-4.4c2,0.7,2.5,3,1.9,6.1c-1.5,7.1-4.3,13.8-7.4,20.3
		c-2.1,4.5-3.7,9.2-5.6,13.8c-0.8,2.1-0.4,4.1,0.6,6.1c4.4,8.1,8.8,16.2,13.1,24.4c1.3,2.4,2.2,5.1,3.3,7.6c0.6,1.3,0,2-1.1,2.5
		c-4.3,1.9-7.9,0.3-10.7-4.7c-3.1-5.4-6.1-10.9-9.2-16.3C125,76.5,124.7,76.4,124.3,76.1"/>
	<path class="st0" d="M60.2,48.1c-0.1,0-0.3,0.1-0.4,0.1c-0.9,8.3-1.7,16.7-2.6,25.3c3-0.5,5.8-1,8.6-1.5C63.9,63.9,62,56,60.2,48.1
		 M66.4,76.6c-2.8,0.6-5.3,1.2-7.8,1.7c-1.5,0.3-2.1,1.2-2.3,2.7c-0.8,5.2-1.6,10.4-2.6,15.6c-1.1,5.4-5.7,6.4-9.7,5.1
		c-1.8-0.6-2.9-3.3-2.7-5.8c0.3-2.8,0.5-5.7,0.9-8.5c0.5-4.5,1.1-8.9,1.8-13.4c0.9-5.5,2-11,3-16.6c1.2-6.6,2.4-13.1,3.4-19.7
		c0.7-4.4,1.2-8.9,1.8-13.4c0.2-1.9,1.8-3.5,4.2-3.9c1.7-0.2,3.5-0.2,5.1,0.1c2.9,0.5,4.6,2.5,5.3,5.4c1.7,7.2,3.6,14.3,5.1,21.5
		c2,9.2,3.7,18.4,5.5,27.6c1.8,9,3.5,18,5.1,27c0.1,0.5-0.7,1.6-1.2,1.9c-3.5,1.2-7.9,1.4-9-4.3c-1.4-7.2-3.4-14.3-5.1-21.5
		C66.9,77.5,66.6,77,66.4,76.6"/>
	<path class="st0" d="M552.6,24.7c-3.7,8.2-5.9,48.8-0.1,58.9C557.3,63.7,556.1,44.3,552.6,24.7 M567,58.2c-0.2,8.3-0.9,16.4-3,24.3
		c-2.3,8.6-9.8,11.3-17.2,8.8c-3.2-1.1-5.2-3.4-6.3-6.5c-1.4-4-2.7-8.1-3.6-12.2c-0.7-3-1-6.1-1.2-9.1c-0.3-6.3-0.7-12.6-0.4-18.9
		c0.4-7.1,0.9-14.3,3.3-21c1.8-4.9,4.4-9,9.9-10.2c3.7-0.8,7.2-0.3,10.3,1.8c0.7,0.5,1.2,1.6,1.6,2.5c2.7,6.8,4.3,13.8,4.9,21.1
		C565.8,45.3,566.4,51.8,567,58.2"/>
	<path class="st0" d="M304,70.4c3.6-0.7,6.7-1.2,9.8-1.8c-2.4-9.2-4.7-18.1-7.1-27h-0.6C305.4,51.1,304.7,60.6,304,70.4 M314.8,72.9
		c-3.4,0.7-6.7,1.2-9.9,2.1c-0.7,0.2-1.3,1.7-1.4,2.7c-0.5,5.5-1,11-1.3,16.5c-0.1,1.6-0.9,2.3-2.1,2.9c-2.1,1-4.2,1-6.4,0.2
		c-1.5-0.6-2.5-1.7-2.3-3.4c0.4-6.9,0.8-13.8,1.3-20.6c0.3-3.9,0.5-7.7,0.9-11.6c0.5-4.6,1.1-9.2,1.6-13.8c0.4-3.4,0.6-6.9,0.9-10.3
		c0.5-5.3,1.1-10.7,1.7-16c0.1-1.4,0.3-2.8,0.5-4.3c0.1-0.4,0.2-0.8,0.4-1.2c1.7-2.1,9.9-2.5,11.1,1.2c1.8,5.7,4,11.2,5.6,16.9
		c3.1,11.4,6,22.9,8.9,34.3c1.8,7.3,3.4,14.6,5,22c0.7,3.2,1.2,6.4,1.6,9.6c0.1,0.7-0.7,2.1-1.3,2.3c-1.8,0.4-3.6,0.5-5.4,0.3
		c-0.7-0.1-1.6-1.1-1.9-1.8c-2.2-7.8-4.3-15.7-6.3-23.6C315.6,76,315.2,74.5,314.8,72.9"/>
	<path class="st0" d="M234.3,22.2c-0.8,3.8-1.7,7.2-2.3,10.7c-1.6,10.1-1.1,20.2-0.8,30.3c0.2,8.5,0.4,17,2.5,25.4
		c0.1,0.3,0.3,0.6,0.4,0.9c0.2,0,0.4,0,0.6,0c0.5-5.8,1.2-11.5,1.5-17.3c0.4-7.4,0.6-14.8,0.9-22.3c0.1-1.4-0.1-2.6-1.8-2.8
		c-0.3,0-0.7-0.3-0.9-0.5c-0.5-0.5-1.5-1.2-1.4-1.6c0.1-0.7,0.9-1.7,1.5-1.8c2.5-0.5,5-0.8,7.5-0.9c1.1,0,2.3,0.5,3.5,0.8
		c3.3,0.8,4.4,2.4,3.7,5.7c-0.2,1-0.4,2-0.4,3c-0.2,6,0,12-0.5,18c-0.6,7-1.4,14.1-2.6,21c-0.7,4.4-3.2,8-7.8,8.8
		c-4.5,0.7-9.4,0.7-12.5-3.4c-2.7-3.5-4.1-7.9-5-12.3c-1.3-6.8-2.2-13.5-2.2-20.5c0-4-0.5-8.1-0.3-12.1c0.4-8.6,0.9-17.2,3.7-25.5
		c2.7-8.1,8.6-9.6,15.6-8.5c2.2,0.4,4.2,1.6,6.2,2.8c0.6,0.4,1.1,1.9,0.8,2.5c-0.3,0.8-1.5,1.5-2.4,1.7
		C239.2,24.7,236.8,24.4,234.3,22.2"/>
	<path class="st0" d="M754.3,76.1c0-3.3-0.1-6.6,0-9.8c0.1-5,0.4-10,0.4-14.9c0-6.1-0.2-12.3-0.4-18.4c-0.1-3.6-0.4-7.2-0.4-10.8
		c0-4,0.2-8.1,0.4-12.1c0.1-1.8,1.4-2.7,3.8-2.8c4.4-0.1,5.9,0.5,6.1,2.7c0.3,4.4,0.8,8.9,0.8,13.3c0.2,14.9,0.5,29.7,0.4,44.6
		c0,5-0.4,10.1-2.4,14.9c-1.3,3.3-3.5,4.9-6.8,5.1c-5.4,0.4-9-0.7-12.1-6.8c-3-6-4.3-12.4-5.4-19c-0.9-5.1-1.7-10.2-2.5-15.4
		c-0.6-4-0.9-7.9-1.4-11.9c-0.5-4.5-1.1-8.9-1.6-13.4c-0.2-1.9-0.3-3.8,0-5.6c0.2-1.7,1.9-2.2,3.4-2.4c3.9-0.5,6.1,0.9,6.9,5
		c0.9,4.6,1.5,9.3,2.1,13.9c0.6,4.4,1.2,8.8,1.8,13.1c0.8,5,1.6,10,2.5,14.9c0.9,5.4,1.5,10.8,3.6,15.8
		C753.8,76.1,754.1,76.1,754.3,76.1"/>
	<path class="st0" d="M418.8,84.6c0.7-3.6,1.9-7.3,2.2-11c0.6-7.5,0.8-15.1,0.9-22.7c0-5.5-0.7-10.9-0.7-16.4
		c-0.1-5.9,0.2-11.8,0.4-17.8c0-0.4,0.3-1.2,0.6-1.2c1.5-0.4,3.2-1,4.7-0.8c2.9,0.4,3.5,1.6,3.7,5.4c0.3,6,0.7,11.9,0.8,17.9
		c0.2,10.1,0.6,20.1,0.4,30.2c-0.1,6.2-1,12.5-3.4,18.4c-1.7,4-4.9,6-9.1,6.3c-7.8,0.6-9.7-2.3-11.7-8.3c-2-5.8-2.9-12-4-18
		c-1-5.8-1.5-11.6-2.2-17.4c-0.4-3.7-0.5-7.4-0.9-11.1c-0.4-4-1.1-7.9-1.5-11.9c-0.2-1.5-0.3-3-0.1-4.5c0.1-1.5,1.3-2,2.6-2.4
		c3.8-1.1,6.1,0.2,7.3,4c2.5,7.9,3.7,16.1,4.3,24.3c0.5,7.1,1.3,14.3,2.2,21.3c0.7,5.3,1.8,10.5,2.7,15.7
		C418.1,84.7,418.4,84.7,418.8,84.6"/>
	<path class="st0" d="M631.7,16.8c-1.6,3.3-1.2,6.7-0.8,9.9c1.2,9.3,5.1,17.8,7.5,26.8c2,7.4,3.8,14.8,5.5,22.3
		c0.6,2.6,0.8,5.4,0.9,8.1c0.2,4.2-2.6,6.4-5.9,8c-4.8,2.4-9.8,2.5-14.2-0.6c-2.3-1.6-4.3-4.1-5.5-6.6c-2.9-6.1-5.3-12.5-7.9-18.7
		c-0.7-1.7,0.3-2.6,1.6-2.8c2.1-0.3,4.3-0.3,6.5-0.1c0.8,0.1,1.7,1,2.1,1.8c3,5.7,6,11.4,8.9,17.2c0.2,0.5,0.7,0.8,1,1.2
		c0.2-0.1,0.4-0.1,0.6-0.2c-0.9-4.4-1.5-9-2.8-13.3c-2.2-7.6-4.8-15.1-7-22.7c-1.9-6.4-3.7-12.8-4.1-19.6c-0.2-3.5,0-6.8,1.2-10
		c1.3-3.5,4.3-5,7.6-5.7c3.9-0.9,7.8-0.7,11.4,0.9c1.9,0.9,3.6,2.4,5.1,3.9c1,1,0.6,2.3-0.9,3c-2.6,1.3-5.1,0.7-7.5-0.4
		C633.9,18.6,632.9,17.7,631.7,16.8"/>
	<path class="st0" d="M959.7,11.5c-2.7,4.4-3,8.7-2.4,13c1.5,11.3,6.9,21.4,10.6,32c2.5,7.2,4.9,14.5,4.7,22.2
		c-0.2,8.6-7,12-14,11.1c-7-0.9-11.1-5.6-14.4-11.4c-1.2-2.1-2.5-4.3-3.7-6.5c-1.1-2.1-0.8-3,1.6-3.5c2.9-0.6,5.4-0.5,7.4,2.5
		c1.8,2.9,4.3,5.3,6.5,8c1.1,1.4,2.4,2.7,3.7,4.2c1.5-3.1,1.1-6.1,0.4-9.1c-2.3-10.7-6.6-20.6-11.2-30.5c-3-6.5-5.5-13.2-5.8-20.3
		c-0.3-6.2,1.3-12.1,6.4-16.3c1.4-1.1,3.2-2,4.9-2.2c4.6-0.6,9.3-0.5,13.2,2.5c1.5,1.2,2.7,2.9,3.7,4.6c0.9,1.6,0.2,2.9-1.5,3.5
		c-3.3,1.1-6.3,0.8-8.8-1.9C960.5,13,960.2,12.4,959.7,11.5"/>
	<path class="st0" d="M917.2,52.2c2.2-0.3,4.4-0.8,6.6-0.9c0.9,0,1.8,0.9,2.7,1.4c-0.7,0.8-1.2,2.1-2,2.4c-1.8,0.8-3.8,1.3-5.8,1.7
		c-1.1,0.3-1.7,0.7-1.7,2c0.1,6.3,0,12.6,0.1,18.9c0,1.5,0.4,3,0.6,4.6c2.2-0.7,4.4-1.8,6.7-2.1c2.1-0.3,4.4,0,6.6,0.4
		c1.9,0.4,1.5,2,0.3,2.6c-6.6,3.9-12.9,8.5-21.1,7.4c-4.7-0.6-6.2-1.5-6.4-6.7c-0.2-5.2-0.4-10.4-0.4-15.6
		c-0.2-11.2-0.5-22.5-0.3-33.7c0.1-5.4,1.2-10.9,2.1-16.3c0.8-4.6,4.5-6.8,8.4-8.2c3.3-1.2,6.9-2.1,10.4-2.6c1.9-0.3,4,0.5,5.9,1.2
		c1.5,0.5,1.6,1.9,0.2,2.7c-2.1,1.2-4,2.8-6.8,2.5c-2.6-0.2-4.3,1.8-4.8,5.4C917,30.4,917,41.2,917.1,52
		C917.1,52.2,917.2,52.3,917.2,52.2"/>
	<path class="st0" d="M790,55.8c1.4,0.2,3.1,0.3,4.6,0.7c0.6,0.2,1.3,1,1.3,1.6c0,0.5-0.7,1.4-1.3,1.6c-1.6,0.6-3.2,0.9-4.7,1.3
		v24.2c2.8-0.2,5.4-0.4,7.9-0.4c1.2,0,2.5,0.5,3.6,1c0.5,0.2,1,1,1,1.5c0,0.5-0.6,1.2-1.1,1.4c-6.1,1.7-12.2,3.7-18.7,3.1
		c-3.9-0.4-5.4-2.4-5.5-6.4c-0.2-6.7-0.6-13.4-0.8-20.1c-0.3-8.3-0.7-16.6-0.8-24.9c0-5.2,0.4-10.4,0.9-15.5c0.3-2.7,1-5.4,1.9-8
		c1.5-4.4,5.2-6.1,9.4-6.5c4.9-0.5,9.8-0.5,14.8-0.4c1.5,0,3,0.6,4.4,1.3c1.4,0.7,1.3,2.2-0.2,2.6c-2.6,0.8-5.3,1.2-8,1.7
		c-0.8,0.1-1.6,0-2.4,0c-3.9,0-5.1,1.1-5.3,5.2c-0.3,5.7-0.7,11.3-0.8,17C789.9,43.7,790,49.7,790,55.8"/>
	<path class="st0" d="M523.4,20.6c-2.7,2.4-3.8,5.5-4.6,8.5c-2,7.3-3,14.8-3.1,22.4c-0.1,6.3-0.5,12.6-0.3,18.9
		c0.2,4.9,1.1,9.7,1.7,14.5c0.3,0,0.6,0.1,0.9,0.1c1.3-2.9,2.6-5.8,3.7-8.7c1.3-3.4,6.6-4.6,8.9-1.9c0.6,0.7,0.7,2.1,0.5,3
		c-1,4.9-3.1,9.5-6.3,13.3c-4.5,5.5-14,4.1-17.4-2.4c-2.3-4.4-3.8-9.1-4.2-14.2c-0.4-5.6-1.3-11.2-1.2-16.7c0.2-9.5,0.8-19,3.4-28.2
		c2.1-7.5,6.3-13.3,14.3-15c4.2-0.9,10.6,0.3,13.2,4.3c1.3,1.9,1.2,2.9-1.2,3.9c-2.2,0.9-4.6,1-6.6-0.9
		C524.6,21.3,524,21,523.4,20.6"/>
	<path class="st0" d="M665.6,56.6c1.7-0.2,3.1-0.5,4.5-0.5c1.1,0,2.3,0.1,3.3,0.5c0.6,0.2,1.1,0.9,1.7,1.4c-0.6,0.6-1,1.4-1.7,1.7
		c-1.5,0.6-3.2,0.7-4.7,1.2c-2.6,0.9-3.2,0.4-2.3,3.8c0.2,0.6,0.1,1.3,0.1,1.9c0.3,6.3,0.6,12.7,0.9,19c0.1,1.3,0.5,2,2.1,1.7
		c3.7-0.7,7.5-1.3,11.3-1.5c1.4-0.1,2.9,0.9,4.4,1.4c-1,2.6-2.9,2.7-4.6,3.1c-3.9,1.1-7.7,2.1-11.6,3c-3.5,0.8-7,1.2-10.4-0.2
		c-1.8-0.7-2.8-2-2.9-4c-0.5-6.4-1.1-12.7-1.7-19c-0.4-5.1-0.9-10.1-1.3-15.2c-0.6-7.4-0.9-14.8-1.8-22.1c-0.5-4.2-0.3-8.1,0.6-12.1
		c0.6-2.9,2.6-4.8,5.3-5.5c5.6-1.4,11.3-2.8,17-3.9c2.3-0.4,4.8,0,7.2,0.3c0.9,0.1,1.6,0.9,2.5,1.5c-2.1,2.7-5,2.8-7.5,3.6
		c-3,1-6.1,1.5-9.2,2.3c-2.9,0.8-2.3,3.5-2.4,5.4c-0.2,4.5,0.1,8.9,0.3,13.4C665,44,665.3,50.1,665.6,56.6"/>
	<path class="st0" d="M18.5,25.8c-2.9,0.2-5.7,0.7-8.5,0.5c-2.8-0.2-5.5-0.9-8.2-1.7C1,24.4-0.1,23,0,22.4c0.2-0.9,1.2-2,2.1-2.3
		c2.5-0.7,5.1-1.1,7.6-1.5c5.4-0.8,10.9-1.7,16.3-2.1c4.5-0.4,9.1-0.2,13.6-0.1c2.2,0.1,4.5,0.4,6.6,0.9c0.8,0.2,2,1.4,1.9,2.1
		c0,0.7-1.2,1.8-2.1,2.1c-3.4,0.9-6.8,1.6-10.3,2.2c-2.1,0.4-4.1,0.5-5.9,0.7c0.7,6.1,1.4,12,2.1,17.9c0.9,7.6,1.8,15.2,2.6,22.8
		c0.5,5.1,0.9,10.3,1.3,15.4c0.4,4.3,0.8,8.5,1.3,12.8c0.2,2-0.8,3.1-2.5,3.3c-1.7,0.2-3.5,0.2-5.2,0c-2.6-0.3-3-2.7-3.3-4.6
		c-1.1-6.4-1.8-12.8-2.7-19.3c-0.7-5.7-1.5-11.3-2.1-17c-0.6-5.5-1.2-10.9-1.7-16.4C19.2,35,18.9,30.6,18.5,25.8"/>
	<path class="st0" d="M886.4,16c-4.3,3.5-5.7,8.3-6.7,13.2c-1.7,7.8-2.3,15.7-2.6,23.6c-0.2,5.6-0.7,11.1-0.8,16.7
		c0,3.6,0.5,7.2,1.3,11c0.7-0.8,1.5-1.6,2.1-2.5c2.3-3.2,6.8-4.3,10.2-2.4c2,1.1,2.3,2,0.9,3.7c-2.4,2.9-4.7,6.1-7.6,8.4
		c-4.2,3.4-12.1,3.4-15.5-1.4c-1.8-2.6-2.8-6-3.1-9.1c-0.7-7.7-1-15.6-0.9-23.3c0.2-9.2,0.8-18.5,3.4-27.3
		c1.6-5.4,3.9-10.5,9.1-13.7c4.5-2.7,9.3-3.2,14.3-1.9c1.9,0.5,3.7,1.4,5.3,2.5c0.9,0.6,2,2.4,1.7,3c-0.5,1-1.9,1.9-3.1,2.1
		C891.4,19,888.6,18.3,886.4,16"/>
	<path class="st0" d="M98.8,95.7c2.2,0,3.9,0,5.6,0c0.8,0,1.6,0.1,2.2,0.4c0.7,0.4,1.5,1.1,1.6,1.8c0.1,0.4-0.9,1.4-1.5,1.6
		c-1.9,0.6-3.8,1.1-5.7,1.3c-2.8,0.3-5.7,0.4-8.5,0.5c-3.9,0-5.1-1.5-5.3-5.4c-0.3-5.3-0.9-10.5-1.6-15.8
		c-0.6-5.3-1.5-10.6-2.2-15.9c-0.6-4.2-1.3-8.4-1.9-12.7c-0.6-4.2-1.3-8.4-1.9-12.7c-0.6-3.9-1.2-7.7-1.6-11.6c-0.2-2-0.2-4.1,0-6.1
		c0.1-1.5,1.1-2.5,2.6-3c4.1-1.5,8.3,0.3,9.3,4.5c1.2,4.9,1.9,9.9,2.7,14.9c0.6,4,1.1,8,1.6,12.1c0.4,3,0.6,6,1,9
		c0.5,4.7,1.2,9.5,1.6,14.2c0.4,4.1,0.6,8.2,0.9,12.2C97.9,88.6,98.4,92.1,98.8,95.7"/>
	<path class="st0" d="M165.4,96.9c-0.2,0.8-0.2,2.7-0.8,2.9c-2.1,0.7-4.4,1.2-6.6,0.9c-3.8-0.5-3.7-4.2-4.3-6.9
		c-1-4.6-1.6-9.4-2.4-14.1c-0.8-5.2-1.6-10.4-2.4-15.6c-0.8-5.4-1.8-10.8-2.5-16.2c-0.5-3.9-0.9-7.8-1.4-11.7
		c-0.3-2.7-0.7-5.4-0.8-8.1c-0.1-2.2,0.3-4.4,0.5-6.6c0-0.3,0.3-0.7,0.5-1c1.9-2.5,9.1-1.8,10.1,1.2c1.2,3.6,2,7.4,2.6,11.1
		c0.9,5,1.5,10,2.1,15c0.4,3.5,0.6,7,0.9,10.5c0.5,5,1.1,10.1,1.7,15.1c0.3,3.1,0.5,6.1,0.9,9.2c0.4,3.5,1,6.9,1.5,10.4
		C165.1,94.1,165.2,95.3,165.4,96.9"/>
	<path class="st0" d="M454.4,26.5c0.9,7,1.9,13.8,2.7,20.5c0.9,7.2,1.8,14.5,2.6,21.7c0.7,6.6,1.3,13.3,1.7,19.9
		c0.2,3.6-2.3,5.2-5.9,4.4c-3.2-0.7-3.6-3.4-4.4-5.9c-2.4-7.3-3.2-14.9-3.9-22.5c-0.6-6.8-1.4-13.5-2.1-20.3
		c-0.5-4.8-0.9-9.6-1.3-14.3c-0.1-0.8-0.4-1.5-0.5-2.1c-2.5-0.2-4.9-0.3-7.3-0.8c-0.9-0.2-1.7-1.4-2.5-2.1c0.9-0.7,1.6-1.8,2.6-2.1
		c6.1-1.4,12.2-3.1,18.5-3.1c3.9,0,7.8-0.1,11.7,0c0.8,0,1.7,0.4,2.3,1c0.7,0.8,1.4,1.9-0.3,2.5c-2.9,0.9-5.9,1.8-8.9,2.6
		C457.8,26.3,456,26.3,454.4,26.5"/>
</g>
</svg>
