<svg id="Layer_1" data-name="Layer 1" xmlns="http://www.w3.org/2000/svg" xmlns:xlink="http://www.w3.org/1999/xlink" viewBox="0 0 244.22 27.92"><defs><style>.cls-1{fill:none;}.cls-2{clip-path:url(#clip-path);}.cls-3{fill:#d6b05e;}</style><clipPath id="clip-path" transform="translate(-20.62 -16.05)"><rect class="cls-1" x="20.62" y="16.05" width="244.22" height="27.92"/></clipPath></defs><title>fmi</title><g class="cls-2"><path class="cls-3" d="M254.22,31.55c0,1.78-.06,3.34-.09,4.91,0,1.8-1,2.56-2.78,2.16a1.72,1.72,0,0,1-1.59-2.06c0-2.6.14-5.21.12-7.81,0-2.76-.15-5.53-.2-8.3,0-1.26.27-1.64,1.47-1.79a10.2,10.2,0,0,1,2.26,0c1.24.12,1.78,1,2.21,2.06,1,2.41,2,4.8,3.06,7.2.3.7.61,1.39.93,2.11.12-1.59.22-3.14.35-4.68q.34-4.21.7-8.42c.07-.77.74-.8,1.27-.87a7.19,7.19,0,0,1,1.63,0,1.22,1.22,0,0,1,1.27,1.4c0,2.3,0,4.61-.13,6.9s-.3,4.61-.47,6.92c-.14,1.82-.3,3.64-.46,5.46a17.14,17.14,0,0,1-.23,1.87,2,2,0,0,1-2,1.77c-2.52.05-3.39-.12-4.54-2.6-.87-1.88-1.6-3.82-2.4-5.73a5.54,5.54,0,0,0-.33-.54" transform="translate(-20.62 -16.05)"/><path class="cls-3" d="M196.64,30.26,201.8,21A3,3,0,0,1,205,19.63c1.39.22,2.07.76,2.25,2.13.28,2,.51,4.08.62,6.13.11,2.32.13,4.65.06,7-.06,2-.28,3.95-.46,5.92a.87.87,0,0,1-.34.59,3.57,3.57,0,0,1-3.86-.13,3,3,0,0,1-.47-1.82c-.21-3.81-.38-7.62-.56-11.38l-1.2,2.25-1.22,2.29a3.6,3.6,0,0,1-4.4,1.92c-1.17-.33-1.21-.36-2.72-1.77,0,.35,0,.61,0,.86q-.12,2-.25,4A1.84,1.84,0,0,1,191,39.29a2.62,2.62,0,0,1-2.37-.45,1.37,1.37,0,0,1-.33-1c-.05-2.14,0-4.28-.09-6.42,0-1.64-.23-3.29-.25-4.93s.72-2.23,2.31-2.25c1.26,0,2.55,0,3.4,1a25.72,25.72,0,0,1,2,3.23c.32.53.59,1.09,1,1.76" transform="translate(-20.62 -16.05)"/><path class="cls-3" d="M72.72,29.66c.64-1.4,1.28-2.76,1.88-4.14.69-1.6,1.31-3.23,2-4.84a2.7,2.7,0,0,1,3.17-1.23,2.28,2.28,0,0,1,1.81,2.31q-.06,10.16-.17,20.32a1,1,0,0,1-.84,1.08c-1.73.47-2.65-.12-2.94-2.16q-.55-3.88-1-7.78c-.15-1.43-.14-2.88-.22-4.56l-.73,2a7,7,0,0,0-.26.66c-.29,1.09-.65,2.11-2,2.25A3.66,3.66,0,0,1,69.8,31.9c-.18-.26-.38-.51-.7-1,.19,1.84.39,3.43.5,5s.17,3.18.19,4.76c0,.85-.77.9-1.34,1a1.66,1.66,0,0,1-1.71-1.29c-.15-.75-.25-1.52-.34-2.29-.27-2.49-.52-5-.78-7.46-.16-1.57-.34-3.14-.45-4.71A1.21,1.21,0,0,1,66,24.69,3.46,3.46,0,0,1,70.15,26c.84,1.18,1.67,2.38,2.58,3.66" transform="translate(-20.62 -16.05)"/><path class="cls-3" d="M140.63,36.66c0,1.14.1,2.28.12,3.41,0,.78-.12,1.5-1,1.82a2.56,2.56,0,0,1-2.85-.35,3.6,3.6,0,0,1-.51-2c-.28-3-.5-6-.77-9-.12-1.3-.32-2.6-.47-3.89A1.41,1.41,0,0,1,136.43,25a4.27,4.27,0,0,1,4.91,2.19c1.23,2.09,2.42,4.2,3.78,6.57-.08-1-.2-1.85-.2-2.66,0-2.79.08-5.57.15-8.36,0-.22.19-.61.34-.63a8.11,8.11,0,0,1,2.22-.15c.82.11,1,.75,1.08,1.57.13,2,.44,4.09.57,6.14.15,2.34.2,4.68.25,7a29.9,29.9,0,0,1-.07,3.74c-.16,1.54-.85,2.14-2.41,2.21a3.81,3.81,0,0,1-3.87-1.88c-.78-1.38-1.61-2.74-2.41-4.11l-.15,0" transform="translate(-20.62 -16.05)"/><path class="cls-3" d="M168.89,24.35C167.81,29,167.1,33.43,168,38c2.5-4.27,3.19-11.37.86-13.65m-1.3,17.17c-3,.19-4.31-1.78-4.93-4.27a15,15,0,0,1-.62-4.39c.18-3.1.32-6.24,1.71-9.14a4.24,4.24,0,0,1,3.55-2.37c3.73-.49,6.71,2.41,7.19,6a19.58,19.58,0,0,1-1.89,11.14,4.91,4.91,0,0,1-5,3" transform="translate(-20.62 -16.05)"/><path class="cls-3" d="M213.37,32.49c1-.22,1.07-.83.2-2.43l-.2,2.43m-.23,1.68c-.18,1.64-.32,3.25-.55,4.84,0,.33-.41.84-.69.88a7.21,7.21,0,0,1-2.44,0c-.75-.15-1.15-1.54-1-2.67.18-1.3.27-2.61.44-3.92q.38-3.06.82-6.11c.27-1.91.54-3.83.85-5.74.13-.82.36-1.61.57-2.42a1.61,1.61,0,0,1,1.79-1.46c3-.06,3,.53,3.62,3,1.06,4.25,2,8.53,2.85,12.82.49,2.35.81,4.73,1.2,7.1a1,1,0,0,1-.77,1.17,2.91,2.91,0,0,1-2.58-.19,1.2,1.2,0,0,1-.46-.66Q216,38,215.18,35.13c-.21-.79-.49-1.42-1.5-1a1.61,1.61,0,0,1-.53,0" transform="translate(-20.62 -16.05)"/><path class="cls-3" d="M242.5,36.07a21.89,21.89,0,0,0,.84-11.25,26.55,26.55,0,0,0-.84,11.25M242.78,21a5.56,5.56,0,0,1,5,4,14.11,14.11,0,0,1,.25,7,46.32,46.32,0,0,1-1,4.61c-.91,3.1-3.62,4.14-6.63,3.43-2.37-.56-3-2.43-3.38-4.44a22.87,22.87,0,0,1,1.07-11.36,4.5,4.5,0,0,1,4.63-3.2" transform="translate(-20.62 -16.05)"/><path class="cls-3" d="M180.29,28c.31-.45.52-.73.71-1a2.44,2.44,0,0,0,.33-.62,3.64,3.64,0,0,0,.31-1.51c-.19-1-.89-1.24-2.14-1l.79,4.2M188,37.27a2.91,2.91,0,0,1-4.06.11c-.93-.79-1.82-1.63-2.86-2.56,0,1.53-.12,2.93,0,4.31,0,.86-.07,1.35-.94,1.45a5.07,5.07,0,0,1-2.2-.22c-.35-.12-.64-.74-.73-1.19-.54-2.67-1.09-5.33-1.47-8-.33-2.36-.45-4.75-.65-7.12-.06-.75.33-1.07,1-1.34a10.39,10.39,0,0,1,7.07-.36,5.83,5.83,0,0,1,1.22.51,2.48,2.48,0,0,1,1,3.73,18.53,18.53,0,0,1-2.55,3.19c-.54.58-.52.92,0,1.5,1.75,2,3.44,4,5.18,6" transform="translate(-20.62 -16.05)"/><path class="cls-3" d="M45.36,25.88h.27L46,24.3l-1,.05.42,1.53m.53,8.4c0,1.61.14,3,.1,4.47,0,.88-.29,1.76-.36,2.64-.05.69-.47.87-1,.88-.73,0-1.53.16-1.93-.75a16.37,16.37,0,0,1-1.2-5.35c-.21-2.55-.55-5.09-.73-7.65a27.12,27.12,0,0,1,.09-4.19,1.39,1.39,0,0,1,.87-.89,9.73,9.73,0,0,1,5.44-.4c2,.55,2.41,1.6,1.29,3.32a22.12,22.12,0,0,1-1.35,1.77c-.55.69-.19,1.25.22,1.81,1.73,2.34,3.49,4.66,5.17,7,.72,1,1.25,2.15,1.9,3.21.39.63.17.95-.47,1.16-1.5.49-2.71,0-3.76-1.47-1.34-1.84-2.77-3.63-4.28-5.61" transform="translate(-20.62 -16.05)"/><path class="cls-3" d="M88.12,38.39c2-3,2.91-10,1.06-12.86-1.25,2-1.69,7.19-1.06,12.86m5.57-7.76c-.19,3.5-.69,6.39-2.22,9A4.08,4.08,0,0,1,87,41.74a3.81,3.81,0,0,1-3.28-3A38.25,38.25,0,0,1,83,34.34a16.14,16.14,0,0,1,1.06-7.78c.88-2.42,2.24-3.52,4.41-3.48,2.85.06,4.16,1.41,4.8,4.32a27.66,27.66,0,0,1,.39,3.24" transform="translate(-20.62 -16.05)"/><path class="cls-3" d="M34.21,39c1.81-2.09,3-11.83,1.65-14.14-1.86,4.63-2,9.31-1.65,14.14M30,34.92a26.18,26.18,0,0,1,1.86-9.32,4.48,4.48,0,0,1,5.82-2.74,3,3,0,0,1,1.57,2.32,14.34,14.34,0,0,1,.33,4.27,42.42,42.42,0,0,1-.64,5.78,12.14,12.14,0,0,1-2.46,6,3.66,3.66,0,0,1-1.53,1,3.39,3.39,0,0,1-4.44-2.36,5.7,5.7,0,0,1-.32-1.19c-.1-1.26-.14-2.52-.2-3.78" transform="translate(-20.62 -16.05)"/><path class="cls-3" d="M98.6,28.8c1.43-2.26,1.09-3.68-.76-4l.76,4m1.5,2.38,5.88,7.3c.41.5.29.88-.33,1a2.86,2.86,0,0,1-2.83-.8l-3.51-3.35c.08.76.19,1.35.19,1.94,0,1.51,0,3-.07,4.54a.87.87,0,0,1-.14.5c-.62.77-1.51.55-2.27.44a1.48,1.48,0,0,1-1-.91c-.41-1.94-.78-3.89-1-5.86-.28-2.55-.44-5.12-.59-7.68-.06-1,0-2.06,0-3.09,0-1.36,1.13-1.69,2.13-1.82a7,7,0,0,1,4.76.83,2.77,2.77,0,0,1,.64,4.43c-.65.81-1.25,1.65-1.89,2.49" transform="translate(-20.62 -16.05)"/><path class="cls-3" d="M134.42,38.46c0,1.1-.05,2.19-.05,3.29a1.69,1.69,0,0,1-1.87,1.88,10.29,10.29,0,0,1-2.31-.22c-1.1-.22-1.11-1.22-1.25-2-.53-3-1.05-6-1.47-8.95a44.09,44.09,0,0,1-.3-4.66c0-1.12,0-2.25,0-3.38a2.33,2.33,0,0,1,3-2.17,3.38,3.38,0,0,1,2.64,2.8,31.11,31.11,0,0,1,1,4.77c.33,2.88.48,5.78.71,8.67h-.1" transform="translate(-20.62 -16.05)"/><path class="cls-3" d="M160,21.67c-1,.47-1.8.93-2.66,1.26s-1.15.67-.68,1.49c.07.12,0,.3,0,.45.11.88.48,1.42,1.5,1.23a1.69,1.69,0,0,1,.85.2c.7.29.66.71.13,1.13a3.93,3.93,0,0,1-1,.66c-.62.23-.68.68-.63,1.22.15,1.87.3,3.74.44,5.62.11,1.52.17,3,.3,4.56.07.78-.2,1.31-1,1.46a6.73,6.73,0,0,1-1.86.15c-1.07-.1-1.45-.58-1.71-1.81-.49-2.41-1-4.8-1.46-7.22a33.36,33.36,0,0,1-.36-3.65,20.47,20.47,0,0,1-.1-3.42c.22-2.21,0-2.2,2.21-3,1.09-.39,2.17-.79,3.27-1.11a2.47,2.47,0,0,1,2.74.76" transform="translate(-20.62 -16.05)"/><path class="cls-3" d="M30,21.65c-1.22.52-2.43,1.08-3.66,1.56s-1.36.49-1.14,1.84c.16,1,.38,1.91.54,2.71l2.13.26,0,.37a4.53,4.53,0,0,1-.7.44c-1.31.54-1.29.53-1.22,1.88s.14,2.77.11,4.15c-.07,2.65-.22,5.31-.3,8,0,.66-.37.86-.91,1a1.79,1.79,0,0,1-2.55-1.56c-.4-2.64-.86-5.28-1.11-7.93-.3-3.22-.43-6.45-.57-9.68-.06-1.34.55-1.86,1.83-2.07s2.3-.52,3.43-.83c.89-.24,1.74-.6,2.64-.76a4.28,4.28,0,0,1,1.44.25c0,.13,0,.26,0,.38" transform="translate(-20.62 -16.05)"/><path class="cls-3" d="M222.52,24.3a17.76,17.76,0,0,1-2.4-.07,5.37,5.37,0,0,1-1.38-.65c.38-.32.71-.81,1.15-.93,2-.52,4-.94,6.06-1.38a15.32,15.32,0,0,1,2.19-.36,6.39,6.39,0,0,1,1.72.17.76.76,0,0,1,.5.52c0,.17-.28.45-.49.52-1.15.38-2.31.7-3.3,1,.26,2.77.58,5.45.74,8.14s.13,5.41.26,8.11a1,1,0,0,1-.95,1.14,7.15,7.15,0,0,1-1.9,0c-1-.11-1.05-1-1.14-1.67-.36-2.8-.71-5.61-.95-8.42-.15-1.74-.08-3.49-.11-5.24,0-.33,0-.65,0-.85" transform="translate(-20.62 -16.05)"/><path class="cls-3" d="M111.08,31.8a8.8,8.8,0,0,1,1.65.26c.41.15.54.5,0,.74a3.55,3.55,0,0,1-.83.3c-.88.15-1,.75-.86,1.46a9.81,9.81,0,0,1,.14,1.24c0,1.59,0,3.19-.08,4.92a12.19,12.19,0,0,1,1.52,0,6.13,6.13,0,0,1,1.06.37v.42a6.48,6.48,0,0,1-1.67.5,13.31,13.31,0,0,1-3.45-.22c-1.08-.27-1.17-1.37-1.27-2.34-.19-2-.52-3.91-.56-5.87a87.58,87.58,0,0,1,.17-9.18c.14-1.63,1.58-2.38,3.16-2.65.93-.16,1.86-.39,2.8-.46a3.56,3.56,0,0,1,1.43.38s0,.66-.14.71a8.81,8.81,0,0,1-1.68.5c-1.23.26-1.6.54-1.64,1.8-.06,2.2,0,4.4.06,6.6a1.14,1.14,0,0,0,.17.47" transform="translate(-20.62 -16.05)"/><path class="cls-3" d="M230.2,27.72c.12-1.56.33-3.12.32-4.67,0-1.78,1.8-2.09,3-1.71,1.4.44,1.39,1.7,1.53,2.77a63.55,63.55,0,0,1,.56,11c0,1-.14,1.91-.24,2.87a.72.72,0,0,1-.22.46,3,3,0,0,1-2.71.46A1.71,1.71,0,0,1,231,37.26c-.34-3.17-1-6.32-.8-9.55" transform="translate(-20.62 -16.05)"/></g></svg>