<svg id="Layer_1" data-name="Layer 1" xmlns="http://www.w3.org/2000/svg" viewBox="0 0 213.49 24.18"><defs><style>.cls-1{fill:#443f3c;}</style></defs><title>harassment</title><path class="cls-1" d="M147.38,109.23c-.21.58-.34,1-.5,1.41a1.39,1.39,0,0,1-1.85.9c-.36-.1-.56-.3-.5-.69.09-.57.16-1.15.28-1.71.29-1.32.61-2.63.89-4a2.06,2.06,0,0,0,0-1c-1.14-3.38-2.3-6.75-3.5-10.24-.75.26-1.54.5-2.3.8a1,1,0,0,0-.4.49,1.27,1.27,0,0,0-.11.56c0,2.21.07,4.42.11,6.62.61.22,1.29-.12,1.66.52-.33.63-1,.47-1.55.82v6c1,.07,2-.67,2.81.21,0,.11,0,.2-.08.22a7.67,7.67,0,0,1-4.16,1.3c-1.14-.08-1.42-.41-1.46-1.56-.11-2.7-.27-5.4-.37-8.1-.07-1.7-.08-3.41-.09-5.11a8.64,8.64,0,0,1,.11-1.05,2,2,0,0,1,1.44-1.75c.7-.23,1.4-.49,2.11-.67a3.11,3.11,0,0,1,1.24-.1,7.06,7.06,0,0,0,2.25.1,1.44,1.44,0,0,1,1.49.88c.56,1.08,1.08,2.19,1.59,3.29.2.43.35.89.61,1.53.15-.45.25-.72.33-1q.49-1.76,1-3.53a1.13,1.13,0,0,1,1.06-1c1.13-.11,1.61.34,1.36,1.45q-.92,4.14-1.94,8.26a3.56,3.56,0,0,0,0,1.88c.47,1.7.91,3.42,1.35,5.13.21.83.06,1.05-.76,1.15a1.32,1.32,0,0,1-1.67-1C147.68,109.94,147.56,109.66,147.38,109.23Z" transform="translate(-62.84 -88.57)"/><path class="cls-1" d="M238.2,95.34c-.19.7-.41,1.4-.57,2.11-.27,1.13-.5,2.26-.75,3.39-.16.72-.29.85-.9.93s-1.21-.07-1.46-.64a11.84,11.84,0,0,0-.88-1.85c0,.2,0,.4,0,.6,0,2.41,0,4.82,0,7.23a1.69,1.69,0,0,1-2,1.77c-.62,0-.78-.2-.81-.83-.05-.87-.11-1.73-.14-2.6-.11-3.69-.21-7.39-.3-11.09,0-.8.07-1.61.09-2.41a1.14,1.14,0,0,1,1-1.15A1.83,1.83,0,0,1,234,92.06c.52,1.48,1,3,1.43,4.5.08.24.16.48.31.91.27-.84.47-1.5.7-2.15.52-1.45,1-2.9,1.61-4.33.29-.75.81-.95,1.92-.86a1.17,1.17,0,0,1,1.27,1.08,6.08,6.08,0,0,1,.21,1.52c-.1,4.38.41,8.73.67,13.09a8.27,8.27,0,0,1-.1,2,1.14,1.14,0,0,1-1.21,1c-.67,0-1-.15-1.07-.83-.3-1.77-.61-3.55-.79-5.33-.22-2.14-.31-4.29-.46-6.44,0-.3-.06-.6-.09-.9Z" transform="translate(-62.84 -88.57)"/><path class="cls-1" d="M70.09,108.18l-.92,3.3a1.09,1.09,0,0,1-1,.91c-1,.11-1.31-.1-1.55-1.12q-1.51-6.42-3-12.85c-.25-1.09-.45-2.2-.67-3.31,0-.13-.06-.25-.08-.38-.16-1.11,0-1.52.77-1.68a1.35,1.35,0,0,1,1.81,1.1q.67,2.51,1.22,5.06c.48,2.23.91,4.47,1.36,6.7a1.38,1.38,0,0,0,.34.66,1.44,1.44,0,0,1,.05-.27,1.48,1.48,0,0,1,2.59-.44,18.33,18.33,0,0,1,1.17,1.74c0-.35.06-.52.06-.69a108.34,108.34,0,0,1,.82-11.63,7.72,7.72,0,0,1,.22-1.13,1.16,1.16,0,0,1,1.8-.71,1,1,0,0,1,.28.73c-.05,1.48-.15,3-.23,4.43-.1,1.77-.19,3.53-.28,5.3-.13,2.41-.25,4.81-.4,7.22-.06,1-.18,1.1-.78,1.23a1.44,1.44,0,0,1-1.85-.78c-.48-.94-.94-1.9-1.41-2.85C70.35,108.58,70.26,108.45,70.09,108.18Z" transform="translate(-62.84 -88.57)"/><path class="cls-1" d="M79.43,102.91l.84-.32c-.11-1.32-.25-2.63-.32-3.94s-.12-2.89-.12-4.34c0-.88.29-1.17,1-1.24a1.24,1.24,0,0,1,1.48,1.06,26.23,26.23,0,0,1,.39,2.77c.29,3.33.55,6.67.81,10,.11,1.38.24,2.75.31,4.13,0,.89-.1,1-.8,1.15-1,.14-1.49-.1-1.63-.89-.24-1.36-.41-2.73-.6-4.1-.14-1-.25-2.1-.39-3.24l-.87.17a1.65,1.65,0,0,0-.09.4c.09,1.67.2,3.34.29,5a12.68,12.68,0,0,1,0,1.43.81.81,0,0,1-.9.8c-.52,0-1.07,0-1.31-.55a3.11,3.11,0,0,1-.25-.92q-.57-7.21-1.1-14.43a8.16,8.16,0,0,1,0-1.45,1.34,1.34,0,0,1,2.64-.17,19.72,19.72,0,0,1,.24,2.4c.1,1.73.17,3.47.26,5.2C79.33,102.16,79.38,102.47,79.43,102.91Z" transform="translate(-62.84 -88.57)"/><path class="cls-1" d="M252.68,99.18c0,.31,0,.62,0,.92q.14,3.57.29,7.13c0,.16,0,.32,0,.48,0,.75-.14.93-.74,1s-1.08-.11-1.14-.82c-.15-1.57-.32-3.14-.33-4.71,0-3.12.05-6.24.09-9.36,0-.8,0-1.6,0-2.36,1.28-.63,2.06-.4,2.5.84.71,2,1.33,4,2,5.94a11.63,11.63,0,0,0,.77,2.07c0-.3,0-.6,0-.9,0-1.9,0-3.79,0-5.69a17,17,0,0,1,.28-2.38c.09-.54.37-.68,1-.64a.65.65,0,0,1,.69.74c0,1.61.07,3.21.06,4.82,0,3.57-.09,7.14-.14,10.71,0,.13,0,.26,0,.39,0,.81-.15,1-.68,1.09a1.19,1.19,0,0,1-1.51-.68c-.78-2.11-1.51-4.23-2.26-6.36-.26-.74-.48-1.5-.72-2.25Z" transform="translate(-62.84 -88.57)"/><path class="cls-1" d="M207.11,109.24c-1.2.6-1.68.46-2.15-.55-.55-1.16-1.07-2.34-1.6-3.51-.15-.32-.31-.62-.58-1.15a6.82,6.82,0,0,0-.09.79q0,1.78.11,3.57c0,.44,0,.89-.45,1.09a1.92,1.92,0,0,1-1.83.23,1.6,1.6,0,0,1-.54-1.05c-.28-1.84-.56-3.69-.73-5.54-.28-3-.47-6-.69-8.94,0-.45,0-.9,0-1.35a1,1,0,0,1,.86-1.12,7,7,0,0,1,4,.07,3.32,3.32,0,0,1,2.17,4.33,13.12,13.12,0,0,1-1.06,2.37c-1.05,1.94-1.05,1.92-.2,4C205.27,104.67,206.17,106.93,207.11,109.24Zm-5.33-16,.52,5C203.82,96.35,203.58,94.11,201.79,93.25Z" transform="translate(-62.84 -88.57)"/><path class="cls-1" d="M187.73,101.28l1.38-.36c-.08-1-.17-1.91-.24-2.83-.1-1.48-.19-3-.27-4.43a5.72,5.72,0,0,1,.06-1.15c.11-.69.36-.9,1-.94s1,.18,1.18.86A22.12,22.12,0,0,1,191.2,95c.17,2.31.27,4.62.44,6.93.15,2.05.34,4.1.51,6.15,0,.29,0,.58,0,.87,0,.74-.16.93-.84,1s-1.22-.16-1.35-.76a17.07,17.07,0,0,1-.28-1.91c-.16-1.57-.3-3.13-.46-4.7a6.77,6.77,0,0,0-.14-.67l-1.32.29c0,.3,0,.55-.06.8-.07,2-.14,4-.22,6.07,0,.88-.37,1.14-1.21,1-.45-.06-.62-.29-.7-.75a101.66,101.66,0,0,1-.93-11c-.08-1.38-.14-2.76-.17-4.14a8.67,8.67,0,0,1,.17-1.62A.92.92,0,0,1,185,92a1.61,1.61,0,0,1,2.18,1c.16,1.57.28,3.14.39,4.71C187.66,98.83,187.68,100,187.73,101.28Z" transform="translate(-62.84 -88.57)"/><path class="cls-1" d="M89.24,107.25l-1,.21c-.2,1.21-.37,2.38-.6,3.53-.14.69-.4.87-1,.9s-1.24-.28-1.29-1.08,0-1.8,0-2.7a115.15,115.15,0,0,1,1.48-13.4c.07-.47.06-1,.65-1.18a2.11,2.11,0,0,1,1.94.15,1.7,1.7,0,0,1,.5,1c.34,1.7.66,3.4.93,5.12q.76,4.85,1.44,9.72c.12.82.1,1.66.15,2.5,0,.4-.19.58-.54.67a1.18,1.18,0,0,1-1.65-.94c-.27-1.05-.5-2.12-.74-3.18C89.4,108.14,89.33,107.74,89.24,107.25Zm-1-1.13c.69-.07.72-.07.68-.45-.07-.67-.19-1.33-.29-2H88.5Z" transform="translate(-62.84 -88.57)"/><path class="cls-1" d="M156.26,109.63a14.86,14.86,0,0,0,1-5.4c.07-2.5,0-5,0-7.52,0-.83,0-1.67.1-2.5.05-.63.28-.79,1-.81s1,.17,1.11.77a7.52,7.52,0,0,1,.14,1.15c.06,3.79.36,7.58-.17,11.36a30.24,30.24,0,0,1-.78,3.57,1.93,1.93,0,0,1-1.77,1.54,2.35,2.35,0,0,1-2.53-1,9.83,9.83,0,0,1-.89-2.12,51.22,51.22,0,0,1-1.54-8.23c-.21-1.69-.44-3.38-.66-5.06a5.62,5.62,0,0,1-.05-.67c0-.9.18-1.17.84-1.26s1.25.13,1.44.91c.29,1.22.55,2.45.73,3.68.35,2.38.6,4.78,1,7.16.22,1.36.61,2.69.93,4A2.71,2.71,0,0,0,156.26,109.63Z" transform="translate(-62.84 -88.57)"/><path class="cls-1" d="M165.89,105.2a1.34,1.34,0,0,0-.28,0c-1.67.49-1.67.49-2,2.2-.14.82-.28,1.65-.45,2.47a1.44,1.44,0,0,1-2.18.89.78.78,0,0,1-.32-.84c.09-.86.15-1.73.3-2.59q1.11-6.31,2.27-12.62c.17-.93.46-1.18,1.31-1.26a1.46,1.46,0,0,1,1.73,1,12.65,12.65,0,0,1,.55,1.95c.65,3.57,1.3,7.15,1.9,10.73a20.3,20.3,0,0,1,.15,2.79.64.64,0,0,1-.23.47,1.12,1.12,0,0,1-1.72-.69Zm-.86-4.74-.23,0-.69,4.11,1.58-.59Z" transform="translate(-62.84 -88.57)"/><path class="cls-1" d="M133.13,94.72c.11.81.14,1.5.29,2.17.49,2.16,1,4.31,1.51,6.47a11.69,11.69,0,0,1,.29,5,3.56,3.56,0,0,1-4.12,2.74,2.92,2.92,0,0,1-1.58-.86,16.92,16.92,0,0,1-2.17-4.13,1.48,1.48,0,0,1,2.41.39c.48.76,1,1.52,1.45,2.28a5.77,5.77,0,0,0,.54.6,3.44,3.44,0,0,0,.33-2.41c-.24-1.46-.53-2.91-.82-4.35-.36-1.76-.79-3.51-1.11-5.28a9.54,9.54,0,0,1-.1-2.21A2.07,2.07,0,0,1,131.91,93a3.65,3.65,0,0,1,3,.49c.55.39.72.76.55,1.1a1.18,1.18,0,0,1-1.34.52A8.52,8.52,0,0,1,133.13,94.72Z" transform="translate(-62.84 -88.57)"/><path class="cls-1" d="M210.27,103.61l-1,.09c0,.38,0,.72,0,1.06,0,1.29.06,2.57.06,3.86,0,.75-.29,1-1,1s-.84-.24-.86-.89c-.06-1.86-.22-3.74-.11-5.59.21-3.46.58-6.92.88-10.38a1.08,1.08,0,0,1,.66-1.07c.93-.38,1.62-.13,1.86.85.37,1.5.69,3,1,4.53.72,4.05,1.4,8.11,2.09,12.16.11.66,0,.84-.45,1a1.06,1.06,0,0,1-1.41-.43,7.66,7.66,0,0,1-.55-1.43C211,106.8,210.65,105.27,210.27,103.61Zm-.75-3.57h-.16v2.12c.4,0,.65,0,.55-.44S209.65,100.6,209.52,100Z" transform="translate(-62.84 -88.57)"/><path class="cls-1" d="M112.77,106.59c1.16-.66,1.78-.52,2.36.43l1.14,1.87.22-.05a5.33,5.33,0,0,0-.06-1c-.37-1.53-.76-3.05-1.17-4.57-.5-1.83-1.06-3.64-1.52-5.47a4.76,4.76,0,0,1,.07-2.57,2.56,2.56,0,0,1,2-1.9,4.31,4.31,0,0,1,3.43.46c.32.2.69.45.53.92a1,1,0,0,1-.9.62,1.93,1.93,0,0,1-1.66-.61,2.37,2.37,0,0,0-.36,1.89c.29,1.35.58,2.7,1,4a33.08,33.08,0,0,1,1.47,5.88,17.86,17.86,0,0,1,.09,2.88,1.78,1.78,0,0,1-1.65,1.84,3.09,3.09,0,0,1-3.4-1.23A16,16,0,0,1,112.77,106.59Z" transform="translate(-62.84 -88.57)"/><path class="cls-1" d="M247.82,106.58c.73.13,1.48-.08,2,.72-.2.24-.36.59-.64.74a6.36,6.36,0,0,1-3,.87c-.92,0-1.22-.26-1.36-1.15-.57-3.59-1.15-7.17-1.67-10.77a31.34,31.34,0,0,1-.24-3.75c0-1.43.31-1.82,1.67-2.16.69-.17,1.37-.35,2.06-.51a1.87,1.87,0,0,1,.76-.08c.29.06.7.17.79.38.15.37-.25.53-.55.64s-.61.2-.92.3l-1,.31,1.49,8.39c.69.23,1.48-.28,2.23.3-.46.72-1.29.69-1.95,1.11a7.19,7.19,0,0,0,.13,2.3C247.66,105,247.74,105.75,247.82,106.58Z" transform="translate(-62.84 -88.57)"/><path class="cls-1" d="M199.43,109.12c-1.11.4-1.31.32-1.57-.63-.36-1.33-.7-2.67-1-4-.09-.33-.18-.66-.29-1.07l-1.06.44c-.12,1.27-.24,2.52-.36,3.76,0,.45-.07.9-.15,1.34a1.25,1.25,0,0,1-1.78.87c-.36-.17-.39-.48-.39-.81,0-1.25,0-2.51.08-3.76.2-2.95.45-5.89.7-8.83q.17-2,.42-4a.75.75,0,0,1,.42-.53c.4-.11.87-.15,1.1.32a4.94,4.94,0,0,1,.37,1.09q1.26,5.54,2.5,11.08l.85,3.76C199.29,108.44,199.35,108.75,199.43,109.12ZM196.21,102l-.38-1.68h-.19l-.13,2Z" transform="translate(-62.84 -88.57)"/><path class="cls-1" d="M224.08,92.55a2.2,2.2,0,0,0-.13,1.88,17.52,17.52,0,0,0,.81,2.16c.81,1.82,1.7,3.6,2.46,5.44.48,1.18.78,2.44,1.16,3.66a1.69,1.69,0,0,1,.08.38c.06.92.09,1.88-.78,2.44a2.7,2.7,0,0,1-2.76,0l-.17-.1a12.43,12.43,0,0,1-3.41-4.54c.93-.73,1.6-.61,2.15.23s1.22,1.73,1.83,2.59c.14.2.27.42.41.63l.29-.17a10.13,10.13,0,0,0-.14-1.17,29.38,29.38,0,0,0-1.92-5.24q-1.11-2.46-2.11-5a6.76,6.76,0,0,1-.43-1.87,2.12,2.12,0,0,1,2.19-2.47,3.71,3.71,0,0,1,3.12,1.2c.17.19.34.55.27.74s-.44.33-.7.38a1.26,1.26,0,0,1-1.14-.38C224.85,93.09,224.48,92.86,224.08,92.55Z" transform="translate(-62.84 -88.57)"/><path class="cls-1" d="M217.07,93.29a3.43,3.43,0,0,0,0,2.3c.4,1.22.86,2.42,1.26,3.64.61,1.83,1.27,3.64,1.76,5.5a8.06,8.06,0,0,1,.09,2.76,1.62,1.62,0,0,1-1.27,1.53,2.07,2.07,0,0,1-2.29-.62c-.86-1.19-1.63-2.44-2.43-3.66.93-.71,1.52-.61,2.09.21.41.6.83,1.2,1.25,1.8l.22-.08c-.12-.54-.2-1.08-.37-1.6-.6-1.83-1.24-3.65-1.83-5.48-.38-1.19-.72-2.4-1-3.62a6.78,6.78,0,0,1-.09-1.91,1.82,1.82,0,0,1,1.27-1.66,3.94,3.94,0,0,1,3.85.88,2.81,2.81,0,0,1,.45.62c.31.59.06,1-.61,1.05a1.48,1.48,0,0,1-1.27-.57C217.82,94,217.51,93.74,217.07,93.29Z" transform="translate(-62.84 -88.57)"/><path class="cls-1" d="M96.57,94.74c.24,1.43.52,2.85.72,4.27q.67,4.77,1.28,9.56c.1.82.06,1.65.09,2.48,0,.4-.23.57-.57.65a1.34,1.34,0,0,1-1.66-.75,7.3,7.3,0,0,1-.71-2.87c-.62-4.26-1.23-8.53-1.84-12.79a1.52,1.52,0,0,0-.1-.27c-.66-.25-1.49,0-2.14-.8a3.87,3.87,0,0,1,.92-.39,33.63,33.63,0,0,1,5.94-.59,8.85,8.85,0,0,1,1.33.18c.19,0,.34.23.62.44C99.21,94.75,97.78,94.2,96.57,94.74Z" transform="translate(-62.84 -88.57)"/><path class="cls-1" d="M173.58,109.32c1.17,0,2.22,0,3.27,0,.12,0,.24.17.34.25,0,.46-.36.48-.62.55-1,.26-2.05.55-3.09.73a5.83,5.83,0,0,1-1.71-.06,1,1,0,0,1-.87-1c-.41-4-.86-8.05-1.26-12.08-.12-1.21-.18-2.44-.19-3.66,0-1,.58-1.45,1.57-1.25a1.07,1.07,0,0,1,.85.94,26,26,0,0,1,.62,3.12c.37,3.81.68,7.62,1,11.43Z" transform="translate(-62.84 -88.57)"/><path class="cls-1" d="M111.54,109.6c0,.15,0,.4,0,.66-.06.74-.15.86-.69,1-.78.14-1.23,0-1.42-.6a28,28,0,0,1-.91-3.63c-.54-3.32-1-6.66-1.5-10-.12-.89-.07-1.79-.12-2.69a.82.82,0,0,1,.54-.82,1.7,1.7,0,0,1,2.74,1.25c.2,1.27.25,2.55.37,3.83q.48,5,1,10.06C111.51,108.91,111.52,109.2,111.54,109.6Z" transform="translate(-62.84 -88.57)"/><path class="cls-1" d="M261.87,92c-.69-.21-1.4,0-1.87-.64.13-.48.56-.52.91-.56a25.15,25.15,0,0,1,5.86.12,2.6,2.6,0,0,1,.67.35c-1.07.72-2.22.22-3.28.7,0,.25,0,.55.08.86a132.14,132.14,0,0,1,.59,13.76c0,1.06-.32,1.19-1.29,1.12a.71.71,0,0,1-.71-.66c0-.32-.09-.63-.12-1-.23-2.95-.47-5.89-.67-8.84-.1-1.44-.12-2.89-.16-4.33C261.86,92.58,261.87,92.26,261.87,92Z" transform="translate(-62.84 -88.57)"/><path class="cls-1" d="M273.6,89.64a7.08,7.08,0,0,0-2.84,2.12,1.49,1.49,0,0,1-.87.49.89.89,0,0,1-1-.35c-.23-.4,0-.74.22-1.06a1.74,1.74,0,0,1,.24-.3,6.82,6.82,0,0,1,4.39-2,2.34,2.34,0,0,1,2.53,3,18.94,18.94,0,0,1-.89,2.74,22.21,22.21,0,0,0-1.44,5.18,15.54,15.54,0,0,1-.43,1.77c-.15.5-.49.67-1.14.65s-.91-.18-1-.76a9.41,9.41,0,0,1,.48-5.39c.27-.75.68-1.46,1-2.19s.71-1.51,1-2.29A1.37,1.37,0,0,0,273.6,89.64Z" transform="translate(-62.84 -88.57)"/><path class="cls-1" d="M272.58,107.72a2.46,2.46,0,0,1-.68-.06c-.27-.13-.65-.27-.73-.5a.81.81,0,0,1,.46-1,2.1,2.1,0,0,1,1.94-.06.68.68,0,0,1,.08,1.23A4.45,4.45,0,0,1,272.58,107.72Z" transform="translate(-62.84 -88.57)"/></svg>