<svg id="Layer_1" data-name="Layer 1" xmlns="http://www.w3.org/2000/svg" viewBox="0 0 343.56 178.27"><defs><style>.cls-1{fill:#c3bcb4;}.cls-2{fill:#fff;}</style></defs><title>logo</title><path class="cls-1" d="M70.78,195.8l3.37-8.62c-1.14-.82-2.06-.62-2.71.69-.85,1.73-1.65,3.48-2.41,5.25a32.17,32.17,0,0,1-8.32,12,11.68,11.68,0,0,1-3.23,1.8,2.71,2.71,0,0,1-3.42-1.61c-.41-1-.84-2.06-1.24-3.1a1.43,1.43,0,0,1,.21-1.47,55.26,55.26,0,0,0,6-10.44c1.22-3,2.45-6,3.58-9,.88-2.36,1.6-4.79,2.39-7.2-1.32-.69-2.54-.17-3.17,1.56-1,2.71-1.91,5.46-2.89,8.18a67.6,67.6,0,0,1-7.84,15.5A7.76,7.76,0,0,1,48.35,202c-2.12,1-3.26,2.75-4.37,4.64s-2.29,3.51-3.35,5.31c-.54.92-.87,2-1.32,2.93s-1,2.08-1.5,3.09a48.77,48.77,0,0,0-4.76,12c-1,4.13-.95,8.25,1.57,11.8s5.72,4.14,9.51,1.88a4.68,4.68,0,0,0,2-3.83c.19-1.91.06-3.86.06-5.79,0-.79,0-1.58,0-2.37-.25-3-.6-6.08-.77-9.13a28.07,28.07,0,0,1,.2-4.59,1.48,1.48,0,0,1,1.58-1.3,9.54,9.54,0,0,1,7.49,2.48A8.64,8.64,0,0,1,57,223.19a69.28,69.28,0,0,1,2.08,8.22,52.76,52.76,0,0,1,.21,8.44,23,23,0,0,1-.65,5.22c-1,4-2.32,8-4.93,11.33a21.94,21.94,0,0,1-5.93,5.1,25.3,25.3,0,0,1-10.22,3.31,20.73,20.73,0,0,1-12.68-2.26,27.94,27.94,0,0,1-7.27-6.22,23.94,23.94,0,0,1-4.52-6.94c-.45-1.1-.83-2.23-1.3-3.5C17,247.77,24,245,25.32,243.29c-1.37-.42-2.51.24-3.68.71-1.92.76-3.82,1.75-5.95,1.41a22.34,22.34,0,0,1-4-1.26c-.24-.09-.44-.52-.51-.83-.64-3-1.25-6.07-1.87-9.1l-.22-1.1a29.27,29.27,0,0,0,16.22,1.25c.14,0,.22-.32.31-.46-1.62,0-3.14,0-4.66,0a33.49,33.49,0,0,1-5.13-.26c-1.94-.35-3.81-1.06-5.71-1.61a1.76,1.76,0,0,1-1.4-1.62c-.11-1.22-.19-2.44-.29-3.83,1.13.47,2.11.87,3.09,1.28A19.51,19.51,0,0,0,17.2,229c6.78.29,8.33-2.27,8.1-2.27-.91,0-1.82.1-2.73.11A26.31,26.31,0,0,1,17,226.8a66.76,66.76,0,0,1-7.58-2.42,1.65,1.65,0,0,1-1.19-1.89c.09-1.28,0-2.57,0-4a11.34,11.34,0,0,0,2,.21c1.92-.18,3.83-.45,5.74-.68,1.66-.2,3.32-.37,4.87.52a6.5,6.5,0,0,0,1.57.69c.43.11-1.65-2.09-3.47-2.21a26,26,0,0,0-7.17.74,5.33,5.33,0,0,1-1.94,0c-1.08-.18-1.39-.66-1.19-2.34.31-2.58.78-5.14,1.24-7.69a1,1,0,0,1,.75-.54c.7,0,1.42.19,2.12.14,2-.14,3.58.86,5.08,2a12.44,12.44,0,0,1,1.9,1.7c.58.65-.88-2.92-3-3.63a51,51,0,0,0-6.59-1.31c.32-1.58.66-3.23,1-4.88.15-.77.49-1.07,1.36-1.11,2.5-.1,4.85.1,7,1.63.72.52,1.82.49,2.64.92a20,20,0,0,1,3,2c.89.69,1.67,1.51,2.5,2.26.12.11.28.27.42.26.71,0-4.73-7-8.88-8.09a16.71,16.71,0,0,0-5.84-.65,9.11,9.11,0,0,1-1.44-.2c.66-2.86,1.31-5.57,1.89-8.3.14-.68.45-.87,1.09-.92,3.92-.31,7.11,1.21,10,3.75a56.5,56.5,0,0,0,4.75,3.65c.7.5-2.76-4.12-5.43-6a13.63,13.63,0,0,0-7.35-2.26c-.85,0-1.7,0-2.63,0,.51-2.07.9-4.06,1.51-6,.4-1.27,1.76-1.39,2.83-1.8,3.23-1.23,5.85.4,8.5,1.84.5.27.93.67,1.42,1,.71.43-1.93-3-4.42-3.89a10.75,10.75,0,0,0-7.75.44c.17-1.07.32-2,.47-3,0-.27.12-.53.14-.79a2.51,2.51,0,0,1,1.78-2.35,28,28,0,0,0,3.3-1.26c1.48-.75,2.71-.26,4,.41,1.52.77,3.11,1.42,4.7,2.07.81.33.65-1-.23-1.42-1.55-.75-3.1-1.52-4.67-2.22a7,7,0,0,0-5.76.31c-.79.34-1.61.62-2.59,1,.21-1.69.37-3.2.62-4.7a1.26,1.26,0,0,1,.68-.88c2.35-.6,4.62-1.69,7.13-1.36,1.4.18,2.75.69,4.15.85a15.88,15.88,0,0,0,4.29.06A10.83,10.83,0,0,1,43.8,169c.83.74-.74-3.87-3.51-4.37-1.57-.28-3.24.05-4.86-.08a43.81,43.81,0,0,1-5.5-.81,16.77,16.77,0,0,0-11.07,1,1.39,1.39,0,0,1-.3,0c.23-1.48.42-2.93.69-4.37.71-3.84,1.46-7.68,2.2-11.52.33-1.72.64-3.44,1-5.15a6.71,6.71,0,0,1,.81-1.58c.58-1,1.18-2.05,1.75-3.09A7.65,7.65,0,0,1,28,135.94c.19-.11-1.55-.85-5,1.81.09-1.18.18-2.68.32-4.17a1.36,1.36,0,0,1,.37-.9,41.58,41.58,0,0,1,3.56-2.32,1.62,1.62,0,0,1,1.4-.06c1.53,1,3.21.69,4.86.79a2.46,2.46,0,0,1,1.57.61A7.55,7.55,0,0,0,39.55,134a14.19,14.19,0,0,1,3.81,1.81c1.72,1-.86-3.14-3.53-3.4a1.72,1.72,0,0,1-1.11-.55c-1.55-2.07-3.67-2.55-6.08-2.32a1.59,1.59,0,0,1-1-.15c-2.3-1.52-4.59-1.12-6.88,0l-.27.13s-.06,0-.24-.06a14.78,14.78,0,0,1,.83-1.56c.73-1.06,1.49-2.09,2.27-3.11s2.3-.74,3.33-.17c2.51,1.4,2.16,1.93,4.76.94,2-.77,3.16-.59,4.76,1.32s2.36,3,4.85,3.16A12.74,12.74,0,0,1,51,132.31a5.39,5.39,0,0,0,.8.43c.78.33-.59-2.22-2-2.73-1.86-.68-3.81-1.1-5.7-1.69a2.14,2.14,0,0,1-1-.75c-.51-.67-.9-1.42-1.38-2.12-1.23-1.76-3-1.55-4.82-1.39-.23,0-.46.11-.69.13a7.4,7.4,0,0,1-4.33-1.1,17.19,17.19,0,0,0-3.46-1A26.88,26.88,0,0,1,32,115.23c2.68-3.46,6.46-5.31,10.12-7.51C49.32,103.41,76,99.9,85.88,93.79c2.73-1.69,46.26-24.14,61.6,21,1.88,7.84.93,16.92.11,18.79a23.84,23.84,0,0,1-4.94,7.39c-2.83,2.83-5.78,5.55-8.46,8.52s-5.24,6.31-7.84,9.48c-.82,1-1.57,2-2.44,3-3.29,3.61-6.64,7.15-9.91,10.78-2.21,2.45-4.24,5.05-6.49,7.45a18.8,18.8,0,0,1-6.82,4.85,5.42,5.42,0,0,1-5.9-1.27,1.38,1.38,0,0,0-1.85-.24,53.41,53.41,0,0,1-6.33,2.91,35.7,35.7,0,0,1-5.45,1,6.76,6.76,0,0,0-3.91,2c-1.13,1.21-2.25,2.43-3.42,3.61-1,1-2,1.88-3,2.82Zm24.7-87.63c-.1-.64-.19-1-.22-1.37a1.11,1.11,0,0,0-1.22-1.1c-.66,0-1.27.28-1.13,1.2a2.94,2.94,0,0,1-.08,1.22,24.17,24.17,0,0,1-3.33,6.45c-1.46,2.23-2.88,4.48-4.29,6.74a27.27,27.27,0,0,1-2.06,3.45c-2,2.37-2.21,5.11-1.84,8,.19,1.49.77,2.92,1.09,4.4.42,1.94.65,3.93,1.14,5.85.7,2.7,1.76,5.28,2.21,8.07a40.84,40.84,0,0,0,4.32,11.84,1.58,1.58,0,0,0,2.24.77c.19-.12.42-.41.4-.58-.34-2.27-.78-4.52-1.09-6.79a27,27,0,0,1-.42-5,18.38,18.38,0,0,1,.93-4.43,18.23,18.23,0,0,0,.84-6c-.08-2.3-.5-4.6-.55-6.9a74.55,74.55,0,0,1,.22-8.62c.28-2.91.89-5.8,1.38-8.69S95,110.83,95.48,108.16Zm-44,52.39c.53-.13,1.56-.31,2.54-.63a10.09,10.09,0,0,0,5.52-4.07,2.42,2.42,0,0,0,.27-1.49c0-.13-.77-.27-1.18-.25a7.14,7.14,0,0,0-1.23.39,13.2,13.2,0,0,1-2.53.59c-2.37.14-4.23.93-5.26,3.24C48.94,159.94,49.29,160.56,51.52,160.55ZM28,139.07a24.31,24.31,0,0,0,5.55.07c1.5-.26,3.06-.72,4.16.9.27.39.52.79.82,1.16.72.9,3.9,2,3.7,1.69a19.48,19.48,0,0,0-1.43-2.08c-1.47-1.93-3.26-3.3-5.84-3-1.63.2-3.24.6-4.87.9C29.38,138.85,28.68,139,28,139.07Z" transform="translate(-8.22 -86.73)"/><path class="cls-2" d="M161.3,115.38l-1.9.45c0,4,0,8,0,12a31.12,31.12,0,0,1-.34,4c-.06.4-.44,1-.76,1.06a17.62,17.62,0,0,1-3.15.16c-1.47,0-1.63-1.12-1.78-2.25-.39-2.86-1-5.71-1.19-8.58-.27-4.19-.38-8.4-.32-12.6,0-3.92.36-7.83.61-11.74.12-1.78,1.46-2.64,3.75-2.55,1.92.08,2.82,1.07,2.88,3.23.12,4.31.21,8.61.32,12.92,0,.26,0,.52,0,.9l1.85-.41c0-4.41,0-8.78,0-13.15,0-2.39,1.08-4.23,2.67-4.8,2.44-.88,4.41.26,4.34,3-.32,12.2-.49,24.4-.65,36.59,0,1.94-1.46,1.9-2.62,2.2A2.88,2.88,0,0,1,162,134a30.86,30.86,0,0,1-.64-4.92C161.24,124.6,161.3,120.06,161.3,115.38Z" transform="translate(-8.22 -86.73)"/><path class="cls-2" d="M150.89,96c-1.36,2.26-4.05,2.17-5.87,3.27.16,1.36.41,2.63.43,3.9.14,7,.19,14,.36,21,.05,2.18.51,4.34.58,6.52.1,3.06-1.78,4.41-4.72,3.5-2-.62-2.93-1.1-2.89-3.84.06-3.88-.14-7.76-.29-11.64-.17-4.49-.45-9-.6-13.48a26.37,26.37,0,0,1,.33-3.52c-1.55-.31-3-.54-4.44-.94a2,2,0,0,1-1.22-1.14c-.09-.28.47-1,.88-1.19a19.93,19.93,0,0,1,3-1.08c3.15-1,6.28-2,9.47-2.77C147.67,94.18,149.57,94.13,150.89,96Z" transform="translate(-8.22 -86.73)"/><path class="cls-2" d="M177.14,114.77c2.31-.09,4.43-2.12,6.73-.05-1.82,1.92-4.36,2.15-6.84,3.07v13.06c1.94,0,4-2,6.36.11a14.84,14.84,0,0,1-2.43,1.44,54.09,54.09,0,0,1-5.32,1.58,3.55,3.55,0,0,1-4.52-3.46c-.2-3.55-.57-7.09-.59-10.64,0-5.17.13-10.34.31-15.51a35.08,35.08,0,0,1,.68-5.56,3.42,3.42,0,0,1,2.64-2.67,49.91,49.91,0,0,1,7.06-1c.72-.05,1.49.62,2.24,1l-1.77,1.26a1.31,1.31,0,0,1-.41.23c-3.18.79-3.07.8-3.22,4-.18,3.9-.6,7.79-.9,11.68C177.11,113.68,177.14,114.1,177.14,114.77Z" transform="translate(-8.22 -86.73)"/><path class="cls-2" d="M227.68,179.56c-3.71-.63-5,.16-5,3.31,0,8.35-.33,16.69-.54,25-.08,2.88-4.16,5.11-7.91,4.36-4-.8-4.92-2-4.93-6.13,0-6.32-.08-12.63,0-18.95.13-8.21.29-16.43.63-24.63.21-5,.6-10,1.3-15a5.17,5.17,0,0,1,2.77-3.61c5.76-1.76,9.2-.46,9.31,6.87.12,7.52,0,15.05,0,22.6,2.87,1,3.7,0,3.72-2.78.07-7.5.33-15,.59-22.49a26.88,26.88,0,0,1,.62-4.14c.74-3.81,3.44-5.54,7.89-5.07,3.64.39,4.92,2,4.92,6.17,0,7.66.15,15.33,0,23-.27,11.13-.76,22.25-1.2,33.38-.11,2.71-.34,5.43-.63,8.13a4.58,4.58,0,0,1-.83,2.51c-2.18,2.38-5.12,1.47-7.74,1.29-2.3-.16-2.75-2.31-3-4.24a25.63,25.63,0,0,1,0-3.05C227.68,197.27,227.68,188.45,227.68,179.56Z" transform="translate(-8.22 -86.73)"/><path class="cls-2" d="M297.79,170.87c.7-7.29,1.34-14.37,2.11-21.44a2.57,2.57,0,0,1,1.44-1.86A16.65,16.65,0,0,1,307,147c2.61.33,3.57,2.17,3.29,4.84-.34,3.2-.57,6.43-.61,9.65-.09,7.23.05,14.47-.05,21.7-.09,6.69-.36,13.37-.6,20.05-.11,3.06-4,5-8,4.14a6.6,6.6,0,0,1-5.4-4.91c-1.45-5.25-2.87-10.52-4.31-15.78-.23-.85-.51-1.68-.61-2,0,3.66,0,7.78,0,11.91,0,2.75,0,5.5,0,8.25,0,3.08-1.23,4.37-4.36,4.4-1.28,0-2.56-.36-3.85-.45-1.9-.13-2.22-1.24-2.2-2.89.07-5.6,0-11.21,0-16.81,0-6.23.15-12.46,0-18.68-.17-5.42-.94-10.82-1-16.24,0-1.17,1.67-3.07,2.92-3.43,5.53-1.61,8.91,1.08,10.47,6.8C293.84,162,296,166.33,297.79,170.87Z" transform="translate(-8.22 -86.73)"/><path class="cls-2" d="M260,193.8l-4,1c-1.08,5.22-2,10.5-3.31,15.69-1,3.94-3.83,5.13-7.58,3.64-2-.79-2.74-3.52-2.11-6.87,2-10.86,4-21.74,6-32.61q2.73-14.52,5.58-29c.32-1.6.61-4.22,1.5-4.5a24.67,24.67,0,0,1,8-.76c2.95.07,3.77,2.12,3.93,4.83.74,12.16,1.61,24.31,2.41,36.46.23,3.52.46,7,.6,10.57.24,6.27.41,12.54.63,18.81.06,1.74-.1,3.5-2.22,3.63-2.36.14-5.49.87-6.28-2.36-1.15-4.73-1.7-9.6-2.51-14.41C260.48,196.58,260.26,195.26,260,193.8Zm-.72-16.33-.35.1-2.18,12.79,3.21-.28Z" transform="translate(-8.22 -86.73)"/><path class="cls-2" d="M183.84,191.88c-.68-10.78-1.26-21.57-2.07-32.34-.35-4.68-1.23-9.33-1.76-14-.44-3.86,2.3-6.76,6.79-6.53a70.68,70.68,0,0,1,14.52,1.93c3.73,1,5.4,4.84,6.74,8.21,2.64,6.64,1.76,13.31-1.42,19.47-2.66,5.15-6.08,9.9-9.07,14.89a5,5,0,0,0-.44,2.59c.16,5.57.48,11.13.55,16.7,0,2.6-.37,5.21-.59,7.82,0,.3-.08.83-.2.85-2.6.51-5.22,1.35-7.81,1.26a4.73,4.73,0,0,1-3.45-2.92C184.52,203.91,183.59,191.9,183.84,191.88Zm12.25-27.7c4.17-6.19,2.93-15.09-2.4-18.76Z" transform="translate(-8.22 -86.73)"/><path class="cls-2" d="M114.77,206.44l8.35,1.22c-.93,1.28-1.2,2.07-1.71,2.3-5.26,2.32-10.6,3.4-16.21,1.09a5.33,5.33,0,0,1-3.46-5.43c0-12.63-.29-25.27.09-37.89.22-7.39,1.63-14.73,2.26-22.12.41-4.83,3.8-6.57,7.59-7.13,4.09-.6,8.34-.26,12.51-.06,1.26.06,2.48,1,3.88,1.62-2.36,3.83-6,2-9.14,2.81l-1.78,35.65,7.24,1.43v1.33c-1.32.56-2.62,1.51-4,1.61-2.55.19-3.73,1.52-3.95,3.8C115.83,193.24,115.32,199.84,114.77,206.44Z" transform="translate(-8.22 -86.73)"/><path class="cls-2" d="M165.1,205.42c2.1.24,4.27.37,6.39.77,2.27.42,2.48,1.86.75,3.07-5.1,3.56-10.67,4.87-16.73,2.7a3.46,3.46,0,0,1-2.46-3.67c-.13-15.24-.54-30.48-.48-45.73a98.6,98.6,0,0,1,1.79-15.49c.7-4.25,2.41-5.63,6.81-6.32,4.13-.65,8.26-1.36,12.42-1.75,1.3-.12,2.69.71,4,1.1l.08,1.35a40.19,40.19,0,0,1-6.24,1.68c-4.19.46-4.83.94-4.94,5-.19,6.68-.36,13.37-.64,20-.11,2.58-.5,5.15-.75,7.58,2.94.16,5.47.2,8,.49.7.08,1.3.93,2,1.43-.57.62-1,1.52-1.72,1.8-2.56,1-5.2,1.83-8.25,2.88Z" transform="translate(-8.22 -86.73)"/><path class="cls-2" d="M323.69,144.69c-2.05-.24-4.64-.39-7.16-.91-.77-.16-1.34-1.31-2-2,.74-.54,1.43-1.47,2.22-1.56,10.07-1.11,20.15-2.11,30.23-3.12a3.52,3.52,0,0,1,1.81,0,28.71,28.71,0,0,1,3,2,11.71,11.71,0,0,1-3,1.53c-4.2.74-8.44,1.29-12.84,1.93,0,1.37,0,2.48,0,3.58q0,27.81,0,55.63a40.78,40.78,0,0,1-.64,6.58c-.37,2.2-2,2.76-4,2.66s-4.55.44-5-2.47A97,97,0,0,1,324.38,195c-.26-10.79,0-21.6-.11-32.4,0-3.43-.44-6.85-.56-10.27C323.61,149.83,323.69,147.33,323.69,144.69Z" transform="translate(-8.22 -86.73)"/><path class="cls-2" d="M139.32,203.93l7.61,1.42c-2.27,3.57-5.4,3.79-8.2,4.43a17.79,17.79,0,0,1-4.87,0c-4.41-.26-5.85-1.8-5.85-6.14,0-3.36.06-6.72,0-10.08-.17-7.91-.72-15.82-.51-23.72.23-8.54,1.1-17.07,1.78-25.6a3.58,3.58,0,0,1,3.79-3.52c2.23-.07,4.47,0,7.32,0a32.91,32.91,0,0,1,1,6c-.07,8-.34,16-.56,24-.18,6.68-.34,13.37-.63,20C140,195.22,139.62,199.63,139.32,203.93Z" transform="translate(-8.22 -86.73)"/></svg>