<svg id="Layer_1" data-name="Layer 1" xmlns="http://www.w3.org/2000/svg" viewBox="0 0 327.39 169.88"><defs><style>.cls-1{fill:#a19584;}.cls-2{fill:#fff;}</style></defs><title>logo</title><path class="cls-1" d="M78.69,114.81l3.21-8.22a1.52,1.52,0,0,0-2.58.66c-.81,1.65-1.57,3.32-2.3,5a30.65,30.65,0,0,1-7.93,11.47A11.13,11.13,0,0,1,66,125.45a2.58,2.58,0,0,1-3.26-1.53c-.39-1-.8-2-1.18-2.95a1.37,1.37,0,0,1,.2-1.4,52.66,52.66,0,0,0,5.7-9.95c1.16-2.85,2.34-5.71,3.41-8.59.84-2.25,1.52-4.56,2.28-6.86-1.26-.66-2.42-.16-3,1.49-1,2.59-1.82,5.2-2.76,7.8a64.41,64.41,0,0,1-7.47,14.77,7.39,7.39,0,0,1-2.59,2.5c-2,1-3.1,2.62-4.16,4.42S51,128.48,50,130.2c-.52.87-.83,1.87-1.26,2.79s-.91,2-1.43,2.94a46.47,46.47,0,0,0-4.53,11.43c-.92,3.93-.9,7.86,1.5,11.25s5.45,3.95,9.06,1.79a4.46,4.46,0,0,0,1.9-3.65c.18-1.82.06-3.68.06-5.52,0-.75,0-1.51,0-2.26-.24-2.9-.57-5.79-.74-8.7a26.75,26.75,0,0,1,.19-4.37,1.41,1.41,0,0,1,1.51-1.23A9.09,9.09,0,0,1,63.34,137a8.24,8.24,0,0,1,2.24,3.89,66,66,0,0,1,2,7.83,50.27,50.27,0,0,1,.2,8,21.9,21.9,0,0,1-.62,5c-1,3.83-2.21,7.62-4.7,10.79a20.91,20.91,0,0,1-5.65,4.86,24.11,24.11,0,0,1-9.74,3.16A19.75,19.75,0,0,1,35,178.43,26.63,26.63,0,0,1,28,172.5a22.81,22.81,0,0,1-4.31-6.61c-.43-1-.79-2.12-1.24-3.33,4.95,1.79,11.58-.82,12.87-2.48-1.3-.4-2.39.23-3.51.67-1.83.73-3.64,1.67-5.67,1.34a21.28,21.28,0,0,1-3.84-1.2c-.23-.08-.42-.5-.48-.79-.61-2.89-1.2-5.78-1.79-8.67l-.21-1a27.89,27.89,0,0,0,15.46,1.19c.13,0,.21-.3.3-.44-1.54,0-3,0-4.44,0a31.91,31.91,0,0,1-4.89-.24c-1.85-.33-3.63-1-5.45-1.53a1.67,1.67,0,0,1-1.34-1.54c-.11-1.16-.18-2.32-.28-3.65,1.07.45,2,.83,2.94,1.22a18.59,18.59,0,0,0,5.45,1.12c6.46.28,7.94-2.16,7.72-2.16-.87,0-1.73.09-2.6.1a25.08,25.08,0,0,1-5.32-.08,63.62,63.62,0,0,1-7.22-2.3,1.58,1.58,0,0,1-1.13-1.8c.08-1.22,0-2.45,0-3.83a10.81,10.81,0,0,0,1.93.2c1.83-.17,3.65-.42,5.47-.65a7.15,7.15,0,0,1,4.64.5,6.19,6.19,0,0,0,1.49.65c.41.11-1.57-2-3.31-2.11a24.78,24.78,0,0,0-6.83.7,5.08,5.08,0,0,1-1.85,0c-1-.17-1.32-.63-1.13-2.23.3-2.46.75-4.89,1.18-7.33a.93.93,0,0,1,.72-.51c.67,0,1.35.18,2,.14,1.92-.13,3.41.82,4.84,1.89a11.86,11.86,0,0,1,1.81,1.62c.55.62-.84-2.79-2.87-3.46a48.56,48.56,0,0,0-6.28-1.24c.3-1.51.63-3.08.93-4.65.14-.74.46-1,1.3-1.06,2.38-.09,4.62.09,6.66,1.55.69.49,1.73.47,2.51.87a19.05,19.05,0,0,1,2.87,1.89c.85.65,1.59,1.44,2.39,2.16.12.11.27.25.4.25.68,0-4.5-6.7-8.46-7.71a15.92,15.92,0,0,0-5.57-.62,8.69,8.69,0,0,1-1.37-.19c.63-2.73,1.25-5.31,1.8-7.91.14-.65.43-.83,1-.88,3.74-.3,6.77,1.16,9.5,3.57a53.84,53.84,0,0,0,4.52,3.48c.67.47-2.63-3.93-5.17-5.72a13,13,0,0,0-7-2.15c-.81,0-1.62,0-2.51,0,.49-2,.86-3.87,1.44-5.69.38-1.21,1.68-1.32,2.7-1.71,3.08-1.17,5.57.38,8.1,1.75.48.26.89.64,1.36.92.67.41-1.84-2.88-4.21-3.71a10.25,10.25,0,0,0-7.39.42c.16-1,.3-1.94.45-2.86,0-.25.11-.5.14-.76A2.39,2.39,0,0,1,29,93.63a26.64,26.64,0,0,0,3.14-1.2c1.41-.71,2.58-.25,3.84.39,1.45.74,3,1.35,4.48,2,.77.32.62-1-.22-1.36-1.48-.72-3-1.45-4.45-2.11a6.63,6.63,0,0,0-5.49.3c-.76.32-1.54.59-2.47.95.2-1.61.35-3,.59-4.48a1.2,1.2,0,0,1,.65-.84c2.24-.57,4.41-1.61,6.79-1.29,1.33.18,2.62.66,4,.81a15.13,15.13,0,0,0,4.08.06A10.32,10.32,0,0,1,53,89.31c.79.71-.7-3.69-3.34-4.16-1.5-.27-3.09,0-4.63-.08a41.75,41.75,0,0,1-5.24-.77,16,16,0,0,0-10.55.93,1.32,1.32,0,0,1-.29,0c.22-1.41.4-2.79.66-4.17.68-3.66,1.39-7.32,2.1-11,.32-1.64.61-3.28,1-4.9a6.39,6.39,0,0,1,.78-1.51c.55-1,1.12-2,1.66-2.94a7.29,7.29,0,0,1,2.8-3c.18-.1-1.48-.81-4.76,1.73.08-1.13.17-2.55.31-4a1.3,1.3,0,0,1,.35-.86,39.62,39.62,0,0,1,3.39-2.21,1.54,1.54,0,0,1,1.33-.06c1.45,1,3.06.66,4.63.76a2.35,2.35,0,0,1,1.5.59A7.2,7.2,0,0,0,48.93,56a13.52,13.52,0,0,1,3.63,1.72c1.64.91-.82-3-3.37-3.24a1.64,1.64,0,0,1-1.06-.53c-1.48-2-3.49-2.43-5.79-2.21a1.51,1.51,0,0,1-.91-.14c-2.19-1.45-4.37-1.07-6.56,0l-.26.12s-.06,0-.23-.05a14.08,14.08,0,0,1,.79-1.49c.69-1,1.42-2,2.17-3s2.19-.71,3.17-.16c2.4,1.34,2.05,1.84,4.54.9,2-.74,3-.56,4.54,1.26s2.25,2.84,4.62,3a12.14,12.14,0,0,1,5.62,2.15,5.14,5.14,0,0,0,.76.41c.75.31-.56-2.11-1.9-2.6-1.77-.64-3.63-1.05-5.43-1.61a2,2,0,0,1-.94-.71c-.48-.64-.86-1.36-1.32-2-1.17-1.68-2.89-1.48-4.59-1.32-.22,0-.44.1-.66.12a7.06,7.06,0,0,1-4.13-1,16.38,16.38,0,0,0-3.3-.95A25.61,25.61,0,0,1,41.72,38c2.55-3.29,6.16-5.06,9.65-7.15,6.87-4.11,32.34-7.46,41.71-13.28,2.6-1.61,44.08-23,58.7,20,1.79,7.47.89,16.12.1,17.9a22.71,22.71,0,0,1-4.71,7c-2.7,2.69-5.5,5.29-8.06,8.12s-5,6-7.48,9c-.78.95-1.5,1.95-2.32,2.85-3.13,3.44-6.33,6.82-9.45,10.27-2.1,2.33-4,4.81-6.19,7.1a17.92,17.92,0,0,1-6.5,4.63,5.16,5.16,0,0,1-5.62-1.21,1.31,1.31,0,0,0-1.76-.22,50.9,50.9,0,0,1-6,2.77,34,34,0,0,1-5.19,1,6.44,6.44,0,0,0-3.72,1.89c-1.08,1.15-2.14,2.32-3.25,3.44-.91.92-1.88,1.79-2.82,2.68Zm23.54-83.51c-.1-.61-.19-1-.21-1.3A1.06,1.06,0,0,0,100.85,29c-.62,0-1.21.27-1.08,1.15a2.8,2.8,0,0,1-.08,1.16,23,23,0,0,1-3.17,6.14c-1.39,2.13-2.74,4.27-4.08,6.43a26,26,0,0,1-2,3.29c-1.93,2.26-2.1,4.87-1.75,7.58.18,1.42.73,2.79,1,4.2.4,1.85.62,3.74,1.09,5.57.66,2.57,1.68,5,2.11,7.69a38.92,38.92,0,0,0,4.11,11.28,1.5,1.5,0,0,0,2.13.74c.18-.11.4-.39.38-.55-.33-2.16-.74-4.3-1-6.47a25.77,25.77,0,0,1-.4-4.73A17.51,17.51,0,0,1,99,68.2a17.37,17.37,0,0,0,.8-5.72c-.08-2.19-.48-4.38-.53-6.57a71,71,0,0,1,.21-8.21c.26-2.78.85-5.52,1.32-8.28S101.78,33.84,102.22,31.31ZM60.33,81.23c.5-.12,1.49-.29,2.42-.6A9.62,9.62,0,0,0,68,76.76a2.31,2.31,0,0,0,.25-1.42c0-.12-.74-.26-1.12-.23a6.81,6.81,0,0,0-1.17.37,12.58,12.58,0,0,1-2.41.56c-2.25.13-4,.89-5,3.09C57.88,80.64,58.21,81.23,60.33,81.23ZM37.9,60.76a23.16,23.16,0,0,0,5.29.07c1.43-.25,2.92-.68,4,.86.25.37.5.75.78,1.1.69.86,3.72,1.94,3.53,1.61a18.57,18.57,0,0,0-1.36-2c-1.4-1.84-3.11-3.14-5.56-2.84-1.56.19-3.09.57-4.64.85C39.24,60.55,38.57,60.65,37.9,60.76Z" transform="translate(-19.07 -10.88)"/><path class="cls-2" d="M164.94,38.18l-1.81.43c0,3.83,0,7.65,0,11.47a29.65,29.65,0,0,1-.32,3.85c-.05.38-.42,1-.72,1a16.79,16.79,0,0,1-3,.16c-1.4,0-1.55-1.06-1.7-2.14-.37-2.73-1-5.44-1.14-8.18-.26-4-.36-8-.31-12,0-3.73.34-7.46.59-11.19.11-1.7,1.39-2.51,3.57-2.43,1.83.07,2.69,1,2.74,3.08.11,4.1.2,8.21.31,12.31,0,.25,0,.5,0,.85l1.76-.39c0-4.2,0-8.37,0-12.53,0-2.28,1-4,2.54-4.58,2.33-.84,4.2.25,4.13,2.86-.3,11.62-.47,23.25-.62,34.87,0,1.84-1.39,1.81-2.5,2.1A2.75,2.75,0,0,1,165.58,56a29.4,29.4,0,0,1-.61-4.69C164.89,47,164.94,42.65,164.94,38.18Z" transform="translate(-19.07 -10.88)"/><path class="cls-2" d="M155,19.75c-1.3,2.15-3.86,2.06-5.6,3.12.15,1.3.39,2.5.41,3.72.13,6.66.18,13.32.34,20,.05,2.07.48,4.14.55,6.21.1,2.92-1.69,4.2-4.5,3.33-1.89-.59-2.8-1-2.76-3.66.05-3.7-.13-7.4-.27-11.09-.16-4.28-.43-8.56-.57-12.84a25.13,25.13,0,0,1,.32-3.35c-1.47-.3-2.88-.51-4.23-.9a2,2,0,0,1-1.17-1.08c-.09-.27.44-.94.84-1.13a19,19,0,0,1,2.85-1c3-.91,6-1.9,9-2.64C152,18,153.77,17.94,155,19.75Z" transform="translate(-19.07 -10.88)"/><path class="cls-2" d="M180,37.6c2.2-.08,4.22-2,6.42-.05-1.73,1.83-4.15,2-6.52,2.93V52.93c1.85,0,3.84-1.92,6.06.11a14.14,14.14,0,0,1-2.32,1.37,51.54,51.54,0,0,1-5.07,1.5,3.39,3.39,0,0,1-4.31-3.3c-.19-3.38-.54-6.76-.57-10.14,0-4.93.12-9.85.29-14.78a33.43,33.43,0,0,1,.65-5.3,3.26,3.26,0,0,1,2.52-2.54,47.56,47.56,0,0,1,6.72-1c.68-.05,1.42.59,2.13.91L184.35,21a1.25,1.25,0,0,1-.39.21c-3,.76-2.92.76-3.06,3.8-.18,3.72-.57,7.42-.86,11.13C180,36.56,180,37,180,37.6Z" transform="translate(-19.07 -10.88)"/><path class="cls-2" d="M228.2,99.34c-3.54-.6-4.74.15-4.73,3.15,0,8-.31,15.91-.52,23.86-.07,2.74-4,4.87-7.54,4.15-3.79-.76-4.69-1.88-4.69-5.84,0-6-.07-12,0-18.05.12-7.83.28-15.65.6-23.47.2-4.78.57-9.57,1.24-14.3a4.93,4.93,0,0,1,2.64-3.44c5.49-1.68,8.77-.44,8.88,6.55.11,7.17,0,14.34,0,21.54,2.74.94,3.52,0,3.54-2.65.06-7.15.32-14.29.56-21.43a25.61,25.61,0,0,1,.59-3.95c.7-3.63,3.28-5.28,7.52-4.83C239.8,61,241,62.51,241,66.5c0,7.3.14,14.6,0,21.9-.26,10.6-.72,21.2-1.15,31.8-.1,2.59-.33,5.17-.6,7.75a4.36,4.36,0,0,1-.79,2.39c-2.08,2.27-4.88,1.4-7.38,1.23-2.2-.15-2.62-2.2-2.84-4a24.42,24.42,0,0,1,0-2.91C228.2,116.21,228.2,107.82,228.2,99.34Z" transform="translate(-19.07 -10.88)"/><path class="cls-2" d="M295,91.06c.66-6.95,1.28-13.69,2-20.43a2.45,2.45,0,0,1,1.37-1.77,15.87,15.87,0,0,1,5.37-.57c2.49.31,3.41,2.07,3.13,4.61-.33,3.05-.54,6.13-.58,9.19-.08,6.89,0,13.79,0,20.68-.09,6.37-.35,12.74-.57,19.11-.1,2.91-3.79,4.78-7.64,3.94a6.28,6.28,0,0,1-5.14-4.68c-1.39-5-2.74-10-4.11-15-.22-.81-.49-1.6-.58-1.91,0,3.48,0,7.41,0,11.35,0,2.62,0,5.24,0,7.86,0,2.94-1.18,4.17-4.16,4.19-1.22,0-2.44-.34-3.67-.42-1.81-.12-2.11-1.18-2.09-2.76.06-5.34,0-10.68,0-16,0-5.94.15-11.88,0-17.8-.17-5.16-.89-10.31-.95-15.48,0-1.12,1.59-2.92,2.78-3.27,5.27-1.54,8.49,1,10,6.48C291.25,82.65,293.3,86.73,295,91.06Z" transform="translate(-19.07 -10.88)"/><path class="cls-2" d="M259,112.91l-3.79.95c-1,5-1.91,10-3.15,15-.95,3.76-3.65,4.89-7.22,3.46-1.88-.75-2.61-3.35-2-6.55,1.95-10.35,3.81-20.72,5.76-31.07q2.6-13.84,5.32-27.65c.3-1.53.58-4,1.43-4.29a23.51,23.51,0,0,1,7.61-.72c2.81.07,3.59,2,3.75,4.6.7,11.58,1.53,23.16,2.3,34.74.22,3.35.44,6.71.57,10.07.23,6,.39,12,.6,17.92.06,1.66-.1,3.34-2.12,3.45-2.25.13-5.24.83-6-2.25-1.1-4.5-1.62-9.15-2.39-13.73C259.46,115.56,259.24,114.3,259,112.91Zm-.68-15.56-.33.09-2.07,12.19,3.06-.27Z" transform="translate(-19.07 -10.88)"/><path class="cls-2" d="M186.42,111.08c-.64-10.27-1.2-20.55-2-30.81-.34-4.46-1.17-8.89-1.68-13.34-.42-3.68,2.19-6.45,6.47-6.23a67.35,67.35,0,0,1,13.84,1.84c3.56.95,5.14,4.61,6.42,7.83,2.51,6.32,1.68,12.68-1.35,18.56-2.53,4.91-5.79,9.44-8.64,14.19a4.78,4.78,0,0,0-.42,2.47c.15,5.3.46,10.61.52,15.91,0,2.48-.35,5-.56,7.45,0,.28-.07.79-.19.81-2.48.49-5,1.28-7.44,1.2a4.51,4.51,0,0,1-3.29-2.79C187.07,122.54,186.18,111.11,186.42,111.08Zm11.67-26.39c4-5.9,2.79-14.38-2.28-17.87Z" transform="translate(-19.07 -10.88)"/><path class="cls-2" d="M120.6,125l8,1.16c-.89,1.22-1.14,2-1.63,2.19-5,2.21-10.1,3.24-15.45,1a5.08,5.08,0,0,1-3.3-5.17c0-12-.28-24.08.08-36.11.21-7,1.56-14,2.15-21.07.39-4.61,3.62-6.26,7.23-6.8,3.9-.57,7.95-.25,11.92-.06,1.2.06,2.37,1,3.7,1.55-2.25,3.65-5.76,1.88-8.71,2.68l-1.7,34,6.89,1.36V101c-1.26.54-2.5,1.44-3.79,1.53a3.61,3.61,0,0,0-3.76,3.62C121.61,112.38,121.13,118.67,120.6,125Z" transform="translate(-19.07 -10.88)"/><path class="cls-2" d="M168.57,124c2,.23,4.07.36,6.09.73s2.36,1.77.71,2.93c-4.86,3.39-10.17,4.64-15.94,2.57a3.3,3.3,0,0,1-2.35-3.5c-.13-14.52-.51-29-.46-43.57a94,94,0,0,1,1.71-14.76c.67-4.05,2.3-5.37,6.49-6,3.94-.62,7.88-1.3,11.84-1.67,1.24-.12,2.57.68,3.85,1.05l.08,1.29a38.3,38.3,0,0,1-5.94,1.6c-4,.44-4.6.9-4.71,4.74-.19,6.37-.34,12.74-.61,19.1-.1,2.46-.48,4.91-.71,7.22,2.8.15,5.21.19,7.6.47.66.08,1.24.89,1.86,1.37-.54.59-1,1.44-1.64,1.71-2.44,1-5,1.75-7.86,2.74Z" transform="translate(-19.07 -10.88)"/><path class="cls-2" d="M319.68,66.11c-2-.22-4.42-.37-6.82-.86-.74-.15-1.28-1.25-1.91-1.92.7-.51,1.36-1.4,2.11-1.49,9.6-1.06,19.2-2,28.81-3a3.36,3.36,0,0,1,1.73,0,27.35,27.35,0,0,1,2.86,1.94,11.16,11.16,0,0,1-2.89,1.46c-4,.71-8,1.23-12.23,1.84,0,1.3,0,2.36,0,3.42q0,26.5,0,53a38.86,38.86,0,0,1-.61,6.27c-.35,2.09-1.91,2.63-3.85,2.53s-4.33.42-4.8-2.36a92.46,92.46,0,0,1-1.71-13c-.25-10.28,0-20.58-.11-30.87,0-3.26-.41-6.52-.54-9.79C319.61,71,319.68,68.63,319.68,66.11Z" transform="translate(-19.07 -10.88)"/><path class="cls-2" d="M144,122.57l7.25,1.35c-2.17,3.4-5.15,3.62-7.81,4.22a17,17,0,0,1-4.64,0c-4.21-.24-5.57-1.71-5.57-5.85,0-3.2.06-6.41,0-9.61-.16-7.53-.69-15.08-.49-22.6.22-8.14,1-16.27,1.7-24.4A3.41,3.41,0,0,1,138,62.38c2.13-.07,4.26,0,7,0a31.36,31.36,0,0,1,1,5.69c-.06,7.63-.32,15.26-.53,22.89-.18,6.37-.32,12.74-.6,19.11C144.67,114.26,144.29,118.47,144,122.57Z" transform="translate(-19.07 -10.88)"/></svg>