<?xml version="1.0" encoding="utf-8"?>
<!-- Generator: Adobe Illustrator 21.1.0, SVG Export Plug-In . SVG Version: 6.00 Build 0)  -->
<svg version="1.1" id="Layer_1" xmlns="http://www.w3.org/2000/svg" xmlns:xlink="http://www.w3.org/1999/xlink" x="0px" y="0px"
	 viewBox="0 0 356.9 195.7" style="enable-background:new 0 0 356.9 195.7;" xml:space="preserve">
<style type="text/css">
	.st0{fill:#C3BCB4;}
	.st1{fill:#FFFFFF;}
	.st2{font-family:'Avenir-Light';}
	.st3{font-size:12.9847px;}
</style>
<title>logo</title>
<path class="st0" d="M75.9,116.6l3.4-8.6c-1.1-0.8-2.1-0.6-2.7,0.7c-0.8,1.7-1.7,3.5-2.4,5.2c-1.8,4.6-4.7,8.7-8.3,12
	c-1,0.8-2.1,1.4-3.2,1.8c-1.4,0.5-2.9-0.2-3.4-1.6c-0.4-1-0.8-2.1-1.2-3.1c-0.2-0.5-0.1-1.1,0.2-1.5c2.4-3.3,4.4-6.8,6-10.4
	c1.2-3,2.5-6,3.6-9c0.9-2.4,1.6-4.8,2.4-7.2c-1.3-0.7-2.5-0.2-3.2,1.6c-1,2.7-1.9,5.5-2.9,8.2c-1.9,5.5-4.6,10.7-7.8,15.5
	c-0.7,1.1-1.6,2-2.7,2.7c-2.1,1-3.3,2.8-4.4,4.6s-2.3,3.5-3.3,5.3c-0.5,0.9-0.9,2-1.3,2.9s-1,2.1-1.5,3.1c-2.1,3.8-3.7,7.8-4.8,12
	c-1,4.1-1,8.2,1.6,11.8s5.7,4.1,9.5,1.9c1.3-0.9,2-2.3,2-3.8c0.2-1.9,0.1-3.9,0.1-5.8c0-0.8,0-1.6,0-2.4c-0.2-3-0.6-6.1-0.8-9.1
	c-0.1-1.5,0-3.1,0.2-4.6c0.1-0.8,0.8-1.4,1.6-1.3c2.7-0.3,5.5,0.6,7.5,2.5c1.1,1.1,1.9,2.5,2.3,4.1c0.9,2.7,1.6,5.4,2.1,8.2
	c0.3,2.8,0.4,5.6,0.2,8.4c0,1.8-0.2,3.5-0.7,5.2c-1,4-2.3,8-4.9,11.3c-1.7,2-3.7,3.8-5.9,5.1c-3.1,1.8-6.6,3-10.2,3.3
	c-4.4,0.6-8.8-0.2-12.7-2.3c-2.8-1.6-5.2-3.7-7.3-6.2c-1.9-2-3.4-4.4-4.5-6.9c-0.5-1.1-0.8-2.2-1.3-3.5c5.2,1.9,12.2-0.9,13.5-2.6
	c-1.4-0.4-2.5,0.2-3.7,0.7c-1.9,0.8-3.8,1.8-6,1.4c-1.4-0.3-2.7-0.7-4-1.3c-0.2-0.1-0.4-0.5-0.5-0.8c-0.6-3-1.2-6.1-1.9-9.1
	l-0.2-1.1c5.2,1.9,10.8,2.4,16.2,1.2c0.1,0,0.2-0.3,0.3-0.5c-1.6,0-3.1,0-4.7,0c-1.7,0-3.4,0-5.1-0.3c-1.9-0.4-3.8-1.1-5.7-1.6
	c-0.8-0.2-1.4-0.8-1.4-1.6c-0.1-1.2-0.2-2.4-0.3-3.8c1.1,0.5,2.1,0.9,3.1,1.3c1.8,0.7,3.7,1,5.7,1.1c6.8,0.3,8.3-2.3,8.1-2.3
	c-0.9,0-1.8,0.1-2.7,0.1c-1.9,0.2-3.7,0.2-5.6,0c-2.6-0.7-5.1-1.5-7.6-2.4c-0.8-0.2-1.3-1-1.2-1.9c0.1-1.3,0-2.6,0-4
	c0.7,0.1,1.3,0.2,2,0.2c1.9-0.2,3.8-0.4,5.7-0.7c1.7-0.2,3.3-0.4,4.9,0.5c0.5,0.3,1,0.5,1.6,0.7c0.4,0.1-1.6-2.1-3.5-2.2
	c-2.4-0.1-4.8,0.2-7.2,0.7c-0.6,0.1-1.3,0.1-1.9,0c-1.1-0.2-1.4-0.7-1.2-2.3c0.3-2.6,0.8-5.1,1.2-7.7c0.1-0.3,0.4-0.5,0.8-0.5
	c0.7,0,1.4,0.2,2.1,0.1c2-0.1,3.6,0.9,5.1,2c0.7,0.5,1.3,1.1,1.9,1.7c0.6,0.6-0.9-2.9-3-3.6c-2.2-0.6-4.4-1-6.6-1.3
	c0.3-1.6,0.7-3.2,1-4.9c0.1-0.8,0.5-1.1,1.4-1.1c2.5-0.1,4.9,0.1,7,1.6c0.7,0.5,1.8,0.5,2.6,0.9c1.1,0.6,2.1,1.2,3,2
	c0.9,0.7,1.7,1.5,2.5,2.3c0.1,0.1,0.3,0.3,0.4,0.3c0.7,0-4.7-7-8.9-8.1c-1.9-0.6-3.9-0.8-5.8-0.6c-0.5,0-1-0.1-1.4-0.2
	c0.7-2.9,1.3-5.6,1.9-8.3c0.1-0.7,0.5-0.9,1.1-0.9c3.9-0.3,7.1,1.2,10,3.8c1.5,1.3,3.1,2.5,4.7,3.6c0.7,0.5-2.8-4.1-5.4-6
	c-2.2-1.4-4.7-2.2-7.4-2.3c-0.9,0-1.7,0-2.6,0c0.5-2.1,0.9-4.1,1.5-6c0.4-1.3,1.8-1.4,2.8-1.8c3.2-1.2,5.9,0.4,8.5,1.8
	c0.5,0.3,0.9,0.7,1.4,1c0.7,0.4-1.9-3-4.4-3.9c-2.5-0.8-5.3-0.7-7.8,0.4c0.2-1.1,0.3-2,0.5-3c0-0.3,0.1-0.5,0.1-0.8
	c0-1.1,0.7-2,1.8-2.4c1.1-0.4,2.2-0.8,3.3-1.3c1.5-0.8,2.7-0.3,4,0.4c1.5,0.8,3.1,1.4,4.7,2.1c0.8,0.3,0.7-1-0.2-1.4
	c-1.5-0.8-3.1-1.5-4.7-2.2c-1.9-0.7-4-0.6-5.8,0.3c-0.8,0.3-1.6,0.6-2.6,1c0.2-1.7,0.4-3.2,0.6-4.7c0.1-0.4,0.3-0.7,0.7-0.9
	c2.4-0.6,4.6-1.7,7.1-1.4c1.4,0.2,2.7,0.7,4.1,0.9c1.4,0.2,2.9,0.2,4.3,0.1c3.4-0.7,6.9,0.2,9.5,2.5c0.8,0.7-0.7-3.9-3.5-4.4
	c-1.6-0.3-3.2,0.1-4.9-0.1c-1.8-0.2-3.7-0.4-5.5-0.8c-3.7-0.9-7.6-0.6-11.1,1c-0.1,0-0.2,0-0.3,0c0.2-1.5,0.4-2.9,0.7-4.4
	c0.7-3.8,1.5-7.7,2.2-11.5c0.3-1.7,0.6-3.4,1-5.1c0.2-0.6,0.5-1.1,0.8-1.6c0.6-1,1.2-2.1,1.8-3.1c0.7-1.3,1.7-2.4,3-3.1
	c0.2-0.1-1.5-0.9-5,1.8c0.1-1.2,0.2-2.7,0.3-4.2c0-0.3,0.1-0.7,0.4-0.9c1.1-0.8,2.3-1.6,3.6-2.3c0.4-0.2,0.9-0.3,1.4-0.1
	c1.5,1,3.2,0.7,4.9,0.8c0.6,0,1.1,0.2,1.6,0.6c1.2,1.3,2.8,2.1,4.5,2.3c1.4,0.4,2.6,1,3.8,1.8c1.7,1-0.9-3.1-3.5-3.4
	c-0.4,0-0.8-0.2-1.1-0.6c-1.5-2.1-3.7-2.6-6.1-2.3c-0.3,0.1-0.7,0-1-0.1c-2.3-1.5-4.6-1.1-6.9,0l-0.3,0.1c0,0-0.1,0-0.2-0.1
	c0.2-0.5,0.5-1.1,0.8-1.6c0.7-1.1,1.5-2.1,2.3-3.1c0.8-1,2.3-0.7,3.3-0.2c2.5,1.4,2.2,1.9,4.8,0.9c2-0.8,3.2-0.6,4.8,1.3
	s2.4,3,4.8,3.2c2.1,0.2,4.2,1,6,2.3c0.3,0.2,0.5,0.3,0.8,0.4c0.8,0.3-0.6-2.2-2-2.7c-1.9-0.7-3.8-1.1-5.7-1.7
	c-0.4-0.1-0.7-0.4-1-0.8c-0.5-0.7-0.9-1.4-1.4-2.1c-1.2-1.8-3-1.6-4.8-1.4c-0.2,0-0.5,0.1-0.7,0.1c-1.5,0.1-3-0.3-4.3-1.1
	c-1.1-0.5-2.3-0.8-3.5-1c0.9-2.4,2.1-4.8,3.6-6.9c2.7-3.5,6.5-5.3,10.1-7.5c7.2-4.3,33.9-7.8,43.8-13.9c2.7-1.7,46.3-24.1,61.6,21
	c1.9,7.8,0.9,16.9,0.1,18.8c-1.2,2.8-2.8,5.3-4.9,7.4c-2.8,2.8-5.8,5.6-8.5,8.5s-5.2,6.3-7.8,9.5c-0.8,1-1.6,2-2.4,3
	c-3.3,3.6-6.6,7.1-9.9,10.8c-2.2,2.4-4.2,5.1-6.5,7.4c-1.9,2.1-4.2,3.8-6.8,4.9c-2,0.8-4.4,0.3-5.9-1.3c-0.5-0.5-1.3-0.7-1.8-0.2
	c-2,1.1-4.2,2.1-6.3,2.9c-1.8,0.5-3.6,0.8-5.4,1c-1.5,0.2-2.9,0.9-3.9,2c-1.1,1.2-2.2,2.4-3.4,3.6C77.9,114.9,76.9,115.8,75.9,116.6
	L75.9,116.6z M100.6,29c-0.1-0.6-0.2-1-0.2-1.4c0-0.6-0.5-1.1-1.1-1.1c0,0-0.1,0-0.1,0c-0.7,0-1.3,0.3-1.1,1.2
	c0.1,0.4,0,0.8-0.1,1.2c-0.8,2.3-1.9,4.5-3.3,6.4c-1.5,2.2-2.9,4.5-4.3,6.7c-0.6,1.2-1.3,2.4-2.1,3.4c-2,2.4-2.2,5.1-1.8,8
	c0.2,1.5,0.8,2.9,1.1,4.4c0.4,1.9,0.7,3.9,1.1,5.9c0.7,2.7,1.8,5.3,2.2,8.1c0.8,4.1,2.3,8.1,4.3,11.8c0.3,0.8,1.3,1.2,2.1,0.9
	c0.1,0,0.1-0.1,0.2-0.1c0.2-0.1,0.4-0.4,0.4-0.6c-0.3-2.3-0.8-4.5-1.1-6.8c-0.3-1.7-0.4-3.3-0.4-5c0.1-1.5,0.4-3,0.9-4.4
	c0.6-1.9,0.9-4,0.8-6c-0.1-2.3-0.5-4.6-0.6-6.9c-0.1-2.9,0-5.8,0.2-8.6c0.3-2.9,0.9-5.8,1.4-8.7S100.1,31.7,100.6,29L100.6,29z
	 M56.6,81.4c0.5-0.1,1.6-0.3,2.5-0.6c2.3-0.7,4.2-2.1,5.5-4.1c0.2-0.5,0.3-1,0.3-1.5c0-0.1-0.8-0.3-1.2-0.2
	c-0.4,0.1-0.8,0.2-1.2,0.4c-0.8,0.3-1.7,0.5-2.5,0.6c-2.4,0.1-4.2,0.9-5.3,3.2C54,80.8,54.4,81.4,56.6,81.4L56.6,81.4z M33.1,59.9
	c1.8,0.2,3.7,0.3,5.5,0.1c1.5-0.3,3.1-0.7,4.2,0.9c0.3,0.4,0.5,0.8,0.8,1.2c0.7,0.9,3.9,2,3.7,1.7c-0.4-0.7-0.9-1.4-1.4-2.1
	c-1.5-1.9-3.3-3.3-5.8-3c-1.6,0.2-3.2,0.6-4.9,0.9C34.5,59.7,33.8,59.8,33.1,59.9z"/>
<path class="st1" d="M166.4,36.2l-1.9,0.4c0,4,0,8,0,12c0,1.3-0.1,2.7-0.3,4c-0.1,0.4-0.4,1-0.8,1.1c-1,0.1-2.1,0.2-3.1,0.2
	c-1.5,0-1.6-1.1-1.8-2.2c-0.4-2.9-1-5.7-1.2-8.6c-0.3-4.2-0.4-8.4-0.3-12.6c0-3.9,0.4-7.8,0.6-11.7c0.1-1.8,1.5-2.6,3.8-2.6
	c1.9,0.1,2.8,1.1,2.9,3.2c0.1,4.3,0.2,8.6,0.3,12.9c0,0.3,0,0.5,0,0.9l1.9-0.4c0-4.4,0-8.8,0-13.2c0-2.4,1.1-4.2,2.7-4.8
	c2.4-0.9,4.4,0.3,4.3,3c-0.3,12.2-0.5,24.4-0.6,36.6c0,1.9-1.5,1.9-2.6,2.2c-1.3,0.1-2.5-0.6-3-1.8c-0.3-1.6-0.6-3.3-0.6-4.9
	C166.3,45.4,166.4,40.9,166.4,36.2z"/>
<path class="st1" d="M156,16.8c-1.4,2.3-4.1,2.2-5.9,3.3c0.2,1.4,0.4,2.6,0.4,3.9c0.1,7,0.2,14,0.4,21c0.1,2.2,0.5,4.3,0.6,6.5
	c0.1,3.1-1.8,4.4-4.7,3.5c-2-0.6-2.9-1.1-2.9-3.8c0.1-3.9-0.1-7.8-0.3-11.6c-0.2-4.5-0.4-9-0.6-13.5c0-1.2,0.1-2.4,0.3-3.5
	c-1.6-0.3-3-0.5-4.4-0.9c-0.6-0.2-1-0.6-1.2-1.1c-0.1-0.3,0.5-1,0.9-1.2c1-0.4,2-0.8,3-1.1c3.1-1,6.3-2,9.5-2.8
	C152.8,15,154.7,15,156,16.8z"/>
<path class="st1" d="M182.2,35.6c2.3-0.1,4.4-2.1,6.7-0.1c-1.8,1.9-4.4,2.2-6.8,3.1v13.1c1.9,0,4-2,6.4,0.1c-0.8,0.6-1.6,1-2.4,1.4
	c-1.7,0.6-3.5,1.1-5.3,1.6c-1.9,0.5-3.8-0.6-4.4-2.4c-0.1-0.3-0.1-0.7-0.1-1c-0.2-3.6-0.6-7.1-0.6-10.6c0-5.2,0.1-10.3,0.3-15.5
	c0.1-1.9,0.3-3.7,0.7-5.6c0.3-1.3,1.3-2.4,2.6-2.7c2.3-0.5,4.7-0.8,7.1-1c0.7-0.1,1.5,0.6,2.2,1l-1.8,1.3c-0.1,0.1-0.3,0.2-0.4,0.2
	c-3.2,0.8-3.1,0.8-3.2,4c-0.2,3.9-0.6,7.8-0.9,11.7C182.2,34.5,182.2,34.9,182.2,35.6z"/>
<path class="st1" d="M232.8,100.4c-3.7-0.6-5,0.2-5,3.3c0,8.4-0.3,16.7-0.5,25c-0.1,2.9-4.2,5.1-7.9,4.4c-4-0.8-4.9-2-4.9-6.1
	c0-6.3-0.1-12.6,0-18.9c0.1-8.2,0.3-16.4,0.6-24.6c0.2-5,0.6-10,1.3-15c0.3-1.6,1.3-2.9,2.8-3.6c5.8-1.8,9.2-0.5,9.3,6.9
	c0.1,7.5,0,15.1,0,22.6c2.9,1,3.7,0,3.7-2.8c0.1-7.5,0.3-15,0.6-22.5c0.1-1.4,0.3-2.8,0.6-4.1c0.7-3.8,3.4-5.5,7.9-5.1
	c3.6,0.4,4.9,2,4.9,6.2c0,7.7,0.1,15.3,0,23c-0.3,11.1-0.8,22.2-1.2,33.4c-0.1,2.7-0.3,5.4-0.6,8.1c0,0.9-0.3,1.8-0.8,2.5
	c-2.2,2.4-5.1,1.5-7.7,1.3c-2.3-0.2-2.8-2.3-3-4.2c-0.1-1-0.1-2,0-3.1C232.8,118.1,232.8,109.3,232.8,100.4z"/>
<path class="st1" d="M302.9,91.7c0.7-7.3,1.3-14.4,2.1-21.4c0.2-0.8,0.7-1.5,1.4-1.9c1.8-0.5,3.8-0.7,5.7-0.6
	c2.6,0.3,3.6,2.2,3.3,4.8c-0.3,3.2-0.6,6.4-0.6,9.6c-0.1,7.2,0,14.5,0,21.7c-0.1,6.7-0.4,13.4-0.6,20.1c-0.1,3.1-4,5-8,4.1
	c-2.6-0.4-4.8-2.3-5.4-4.9c-1.5-5.2-2.9-10.5-4.3-15.8c-0.2-0.9-0.5-1.7-0.6-2c0,3.7,0,7.8,0,11.9c0,2.8,0,5.5,0,8.2
	c0,3.1-1.2,4.4-4.4,4.4c-1.3,0-2.6-0.4-3.9-0.4c-1.9-0.1-2.2-1.2-2.2-2.9c0.1-5.6,0-11.2,0-16.8c0-6.2,0.1-12.5,0-18.7
	c-0.2-5.4-0.9-10.8-1-16.2c0-1.2,1.7-3.1,2.9-3.4c5.5-1.6,8.9,1.1,10.5,6.8C298.9,82.8,301.1,87.2,302.9,91.7z"/>
<path class="st1" d="M265.1,114.6l-4,1c-1.1,5.2-2,10.5-3.3,15.7c-1,3.9-3.8,5.1-7.6,3.6c-2-0.8-2.7-3.5-2.1-6.9
	c2-10.9,4-21.7,6-32.6c1.8-9.7,3.7-19.3,5.6-29c0.3-1.6,0.6-4.2,1.5-4.5c2.6-0.7,5.3-0.9,8-0.8c3,0.1,3.8,2.1,3.9,4.8
	c0.7,12.2,1.6,24.3,2.4,36.5c0.2,3.5,0.5,7,0.6,10.6c0.2,6.3,0.4,12.5,0.6,18.8c0.1,1.7-0.1,3.5-2.2,3.6c-2.4,0.1-5.5,0.9-6.3-2.4
	c-1.1-4.7-1.7-9.6-2.5-14.4C265.6,117.4,265.4,116.1,265.1,114.6z M264.4,98.3l-0.4,0.1l-2.2,12.8l3.2-0.3L264.4,98.3z"/>
<path class="st1" d="M188.9,112.7c-0.7-10.8-1.3-21.6-2.1-32.3c-0.4-4.7-1.2-9.3-1.8-14c-0.4-3.9,2.3-6.8,6.8-6.5
	c4.9,0.1,9.8,0.8,14.5,1.9c3.7,1,5.4,4.8,6.7,8.2c2.6,6.6,1.8,13.3-1.4,19.5c-2.7,5.1-6.1,9.9-9.1,14.9c-0.4,0.8-0.5,1.7-0.4,2.6
	c0.2,5.6,0.5,11.1,0.6,16.7c0,2.6-0.4,5.2-0.6,7.8c0,0.3-0.1,0.8-0.2,0.9c-2.6,0.5-5.2,1.4-7.8,1.3c-1.6-0.3-2.9-1.4-3.4-2.9
	C189.6,124.7,188.7,112.7,188.9,112.7z M201.2,85c4.2-6.2,2.9-15.1-2.4-18.8L201.2,85z"/>
<path class="st1" d="M119.9,127.3l8.3,1.2c-0.9,1.3-1.2,2.1-1.7,2.3c-5.3,2.3-10.6,3.4-16.2,1.1c-2.2-0.8-3.7-3-3.5-5.4
	c0-12.6-0.3-25.3,0.1-37.9c0.2-7.4,1.6-14.7,2.3-22.1c0.4-4.8,3.8-6.6,7.6-7.1c4.1-0.6,8.3-0.3,12.5-0.1c1.3,0.1,2.5,1,3.9,1.6
	c-2.4,3.8-6,2-9.1,2.8l-1.8,35.6l7.2,1.4v1.3c-1.3,0.6-2.6,1.5-4,1.6c-2.6,0.2-3.7,1.5-3.9,3.8C120.9,114.1,120.4,120.7,119.9,127.3
	z"/>
<path class="st1" d="M170.2,126.2c2.1,0.2,4.3,0.4,6.4,0.8c2.3,0.4,2.5,1.9,0.8,3.1c-5.1,3.6-10.7,4.9-16.7,2.7
	c-1.6-0.5-2.6-2-2.5-3.7c-0.1-15.2-0.5-30.5-0.5-45.7c0.2-5.2,0.8-10.4,1.8-15.5c0.7-4.2,2.4-5.6,6.8-6.3c4.1-0.6,8.3-1.4,12.4-1.8
	c1.3-0.1,2.7,0.7,4,1.1l0.1,1.4c-2,0.7-4.1,1.3-6.2,1.7c-4.2,0.5-4.8,0.9-4.9,5c-0.2,6.7-0.4,13.4-0.6,20c-0.1,2.6-0.5,5.1-0.8,7.6
	c2.9,0.2,5.5,0.2,8,0.5c0.7,0.1,1.3,0.9,2,1.4c-0.6,0.6-1,1.5-1.7,1.8c-2.6,1-5.2,1.8-8.2,2.9L170.2,126.2z"/>
<path class="st1" d="M328.8,65.5c-2-0.2-4.6-0.4-7.2-0.9c-0.8-0.2-1.3-1.3-2-2c0.7-0.5,1.4-1.5,2.2-1.6c10.1-1.1,20.1-2.1,30.2-3.1
	c0.6-0.2,1.2-0.2,1.8,0c1,0.6,2,1.3,3,2c-0.9,0.7-1.9,1.2-3,1.5c-4.2,0.7-8.4,1.3-12.8,1.9c0,1.4,0,2.5,0,3.6c0,18.5,0,37.1,0,55.6
	c0,2.2-0.2,4.4-0.6,6.6c-0.4,2.2-2,2.8-4,2.7s-4.5,0.4-5-2.5c-1-4.5-1.6-9-1.9-13.5c-0.3-10.8,0-21.6-0.1-32.4
	c0-3.4-0.4-6.9-0.6-10.3C328.7,70.7,328.8,68.2,328.8,65.5z"/>
<path class="st1" d="M144.4,124.8l7.6,1.4c-2.3,3.6-5.4,3.8-8.2,4.4c-1.6,0.2-3.3,0.2-4.9,0c-4.4-0.3-5.9-1.8-5.9-6.1
	c0-3.4,0.1-6.7,0-10.1c-0.2-7.9-0.7-15.8-0.5-23.7c0.2-8.5,1.1-17.1,1.8-25.6c0-2,1.7-3.6,3.6-3.5c0.1,0,0.1,0,0.2,0
	c2.2-0.1,4.5,0,7.3,0c0.5,2,0.9,4,1,6c-0.1,8-0.3,16-0.6,24c-0.2,6.7-0.3,13.4-0.6,20C145.1,116,144.7,120.5,144.4,124.8z"/>
<text transform="matrix(1 0 0 1 81.0763 149.8165)"><tspan x="0" y="0" class="st1 st2 st3">Helping pa</tspan><tspan x="64" y="0" class="st1 st2 st3">r</tspan><tspan x="68.1" y="0" class="st1 st2 st3">ents have conversations </tspan></text>
<text transform="matrix(1 0 0 1 81.0763 165.3975)" class="st1 st2 st3">with their sons about acceptable </text>
<text transform="matrix(1 0 0 1 81.0763 180.9786)" class="st1 st2 st3">sexual behavior</text>
</svg>
