<?xml version="1.0" encoding="utf-8"?>
<!-- Generator: Adobe Illustrator 21.0.2, SVG Export Plug-In . SVG Version: 6.00 Build 0)  -->
<svg version="1.1" id="Layer_1" xmlns="http://www.w3.org/2000/svg" xmlns:xlink="http://www.w3.org/1999/xlink" x="0px" y="0px"
	 viewBox="0 0 841.3 91.6" style="enable-background:new 0 0 841.3 91.6;" xml:space="preserve">
<style type="text/css">
	.st0{clip-path:url(#SVGID_2_);fill:#45403E;}
</style>
<g>
	<defs>
		<rect id="SVGID_1_" x="5.5" width="835.8" height="91.6"/>
	</defs>
	<clipPath id="SVGID_2_">
		<use xlink:href="#SVGID_1_"  style="overflow:visible;"/>
	</clipPath>
	<path class="st0" d="M382.6,29.8c1.6-5.9,3.1-11.5,4.7-17.1c0.5-1.9,1.1-3.8,1.8-5.6c0.3-0.7,1.1-1.6,1.7-1.6
		c2.1-0.2,4.3-0.4,6.4-0.1c1.5,0.2,2.3,1.4,2.1,3c-0.5,3.6-1,7.3-1.8,10.9c-2.6,11-5.3,21.9-7.9,32.9c-0.2,0.8,0,1.8,0.3,2.7
		c2.3,8.9,4.7,17.9,7.1,26.8c0.5,1.8-0.2,3-1.7,3.3c-2.2,0.3-4.5,0.3-6.6,0c-2.1-0.4-2.4-2.6-3.1-4.3c-0.6-1.5-1-3.1-1.7-5.1
		c-0.8,2.5-1.4,4.6-2.1,6.7c-1.5,4.4-6.1,6.1-10,3.7c-0.5-0.3-1-1.5-0.9-2.1c0.7-4,1.4-8.1,2.3-12.1c1.1-5.2,2.5-10.4,3.6-15.7
		c0.1-0.6-0.1-1.4-0.3-2.1c-4.6-13.7-9.3-27.4-13.9-41.1c-0.6-1.9-1.2-3.9-1.7-5.7c-3,1-5.8,2.2-8.8,2.9c-3.3,0.8-4.1,3.1-4.1,5.9
		c0.1,8.6,0.2,17.1,0.4,25.7c0,1.4,0.4,2.8,0.6,3.9c1.9,0.2,3.7,0.2,5.4,0.6c0.6,0.1,1.2,0.9,1.8,1.3c-0.6,0.7-1,1.7-1.7,2
		c-1.7,0.7-3.6,1.1-5.5,1.7v27.5c1-0.2,1.9-0.6,2.8-0.6c2.8-0.2,5.6-0.3,8.4-0.2c0.6,0,1.4,1,1.6,1.6c0.1,0.4-0.7,1.3-1.3,1.6
		c-5.8,2.3-11.3,5.6-18,5c-2-0.2-4-0.4-5.3-2.1c-0.6-0.8-1-1.9-1.1-2.9c-0.2-1.6,0-3.2-0.1-4.8c-0.3-7.7-0.5-15.4-0.9-23
		c-0.2-5.9-0.6-11.7-0.8-17.6c-0.2-4.7-0.4-9.5-0.4-14.2c0-2.3,0.5-4.5,0.8-6.8c0.4-4,2.7-6.3,6.4-7.7c5.2-1.9,10.3-4,16-3.4
		c0.6,0.1,1.3-0.1,1.7,0.2c1.6,1,3,0.8,4.9,0.4c5.1-1.2,8.1,0.6,10.7,6.2c2.8,6.2,5.3,12.5,7.9,18.7
		C382.2,29.2,382.3,29.3,382.6,29.8"/>
	<path class="st0" d="M37.9,71.4c-0.6,2.3-1.1,4.7-1.8,7c-0.9,3.2-1.8,6.4-2.8,9.5c-0.2,0.6-0.8,1.3-1.4,1.4
		c-2.2,0.3-4.4,0.6-6.6,0.6c-1.8-0.1-2.2-1.9-2.5-3.3C20,75.3,17.2,64,14.6,52.5C11.7,40,9.1,27.4,6.4,14.9
		c-0.5-2.1-0.8-4.3-0.9-6.5C5.3,5.2,6,4.5,9,3.4c4-1.3,7,0,8.1,4c2.2,8.2,4.1,16.4,6,24.7c1.5,6.6,2.8,13.3,4.1,19.9
		c0.9,4.5,1.7,9,2.6,14c0.4-1.7,0.7-3.1,1.2-4.4c0.6-1.8,1.8-2.7,3.9-3c5.3-0.8,8,2.1,10.2,6.2c0.8,1.5,1.6,2.9,2.7,4.2
		c0-2.4,0-4.7,0-7.1c0.1-5.5,0.1-10.9,0.5-16.4c0.5-7,1.4-14,2.1-21c0.6-5.2,1-10.5,1.8-15.7c0.6-4,3.4-5.3,7.3-4.2
		c1.7,0.5,2.3,1.1,2.2,3c-0.4,4.2-0.3,8.5-0.5,12.7c-0.2,5.3-0.6,10.6-0.8,15.9c-0.3,6.7-0.6,13.3-0.9,20
		c-0.4,8.3-0.8,16.6-1.3,24.9c-0.1,2.2-0.5,4.4-0.9,6.5C57,89.5,55.5,90,54,90.2c-1.4,0.2-2.9,0.2-4.3,0c-1.7-0.2-2.9-1.3-3.7-2.9
		c-2.5-5.4-5.1-10.7-7.7-16C38.2,71.3,38,71.4,37.9,71.4"/>
	<path class="st0" d="M79.9,47.5c0.4-0.1,0.9-0.2,1.4-0.3c2-0.5,2.8-1.4,2.1-3.6c-0.6-1.7-0.5-3.7-0.6-5.5
		c-0.5-9.5-0.9-18.9-1.3-28.4c-0.2-4.4,1.1-6,4.3-6.2c5.4-0.3,6.7,2,7.2,5.8c0.9,6.7,1.6,13.4,2.2,20.2c0.5,5.3,0.9,10.7,1.3,16
		c0.5,6,0.9,12,1.3,18c0.6,7.5,1.1,15.1,1.7,22.6c0.1,1.7-0.5,2.8-2,2.9c-2.1,0.2-4.2,0.3-6.3,0c-2.3-0.3-2.6-2.4-2.9-4.2
		c-0.8-5.5-1.5-11.1-2.2-16.7c-0.7-5.3-1.3-10.6-2-16c-1.3,0.3-2.7,0.6-4.2,1c0.2,5.2,0.3,10.4,0.6,15.6c0.2,4.1,0.6,8.1,0.8,12.2
		c0.1,1.4-0.1,2.9-0.5,4.2c-0.5,2-2.4,2.1-3.9,2.3c-4.4,0.6-6.9-2-7.3-7.2c-0.4-5.9-0.8-11.8-1.3-17.7c-0.6-7.2-1.2-14.4-1.7-21.6
		c-0.3-4.6-0.6-9.1-0.9-13.7c-0.3-5.7-0.7-11.4-0.8-17.2c0-3,1.4-5.2,4.1-6C72,3.5,74.5,3.9,75.9,6c0.8,1.3,1.5,2.8,1.6,4.3
		c0.5,4.4,0.7,8.8,0.9,13.3c0.3,7,0.6,14.1,0.9,21.1C79.4,45.6,79.7,46.5,79.9,47.5"/>
	<path class="st0" d="M119.4,62.8c1.3-0.4,2.3-0.7,3.4-1.1c-0.6-4.2-1.3-8.3-1.9-12.4l-0.4,0.1C120.2,53.8,119.8,58.1,119.4,62.8
		 M138.1,91.2c-2.2,0.1-4.2,0.2-6.2,0.4c-2.7,0.2-3.1-1.8-3.8-3.7c-1.9-6.1-3.2-12.4-3.9-18.8c-0.1-0.5-0.4-1-0.6-1.6
		c-3.5-0.3-4.7,1-5,4.3c-0.5,4.6-1.3,9.2-2.2,13.8c-0.4,2-3.8,3.1-6.6,2.4c-2.6-0.7-3.7-2.1-3.7-4.9c0-4.5-0.2-9.1,0-13.6
		c0.4-6.9,1.1-13.8,1.7-20.7c0.5-5.6,1.1-11.2,1.8-16.8c0.5-4.4,1.3-8.7,2-13c0.5-3.1,0.9-6.2,1.5-9.2c0.6-3.7,1.8-4.8,5.5-5
		c5.7-0.3,7.7,1.5,8.7,7.8c1.1,6.3,2.4,12.6,3.4,19c1,6.2,1.7,12.4,2.7,18.5c0.8,5.2,1.7,10.5,2.5,15.7c0.7,4.7,1.3,9.4,1.8,14.2
		C137.9,83.4,137.9,86.9,138.1,91.2"/>
	<path class="st0" d="M570.8,54.1c2.7-0.5,5.1-1.1,7.6-1.5c1.7-0.3,1.7-1.3,1.4-2.5c-1.5-7-2.9-14.1-4.5-21.7
		C573.8,37.2,572.3,45.4,570.8,54.1 M581,57c-3.3,0.2-6.6,0.4-9.9,0.8c-0.4,0-0.9,0.8-1,1.3c-1.1,5.7-2,11.4-3.1,17.1
		c-0.2,1-0.3,2.1-0.6,3.1c-1.3,4.3-7.4,6.2-10.9,3.4c-1.9-1.6-1.2-4-0.9-5.9c0.6-4.9,1.6-9.8,2.5-14.6c0.8-4.3,1.8-8.6,2.7-12.9
		c1.6-7.5,3.1-15.1,4.7-22.6c1.5-7.1,3.1-14.2,4.9-21.3c0.3-1,2-1.9,3.3-2.2c1.6-0.4,3.3-0.3,4.9,0c2.9,0.4,3.8,2.8,4.6,5.2
		c3.2,9.8,5.6,19.8,7.4,30c1.2,6.7,2.7,13.4,4,20.2c1.2,6.3,2.2,12.5,3.3,18.8c0.3,2,0.4,4,0.9,5.9c0.5,2.1-0.8,2.8-2.2,3
		c-1.5,0.3-3.2,0.3-4.7,0c-1.5-0.3-2.6-1.3-3.1-3.1C585.5,74.5,583.2,65.8,581,57"/>
	<path class="st0" d="M424.7,78.5c0.8-5.1,1.9-10.1,2.3-15.2c0.7-8,1.1-16,1.3-24c0.1-7.8-0.3-15.7-0.3-23.5c0-2.6,0.1-5.3,0.5-7.9
		c0.1-1,1.2-2.4,2.1-2.5c1.9-0.3,3.9-0.1,5.7,0.3c0.7,0.2,1.5,1.5,1.6,2.4c0.4,7.5,0.7,15.1,0.9,22.6c0.2,4.8,0.6,9.6,0.4,14.4
		c-0.4,10.4-0.8,20.8-3.5,30.9c-0.8,2.9-2,5.9-3.6,8.5c-3,4.7-14.4,4.9-18.1-2.7c-2.4-5-3.8-10.3-4.9-15.7
		c-1.6-7.5-2.7-15.2-3.9-22.8c-1.2-7.7-2.4-15.4-3.4-23.1c-0.5-3.5-0.7-7.1-0.9-10.7c-0.1-2.8,1.1-4.1,3.9-4.6
		c2.5-0.5,5.4,0.9,6,3.2c1.3,5.4,2.4,10.7,3.4,16.1c0.9,5,1.5,10.1,2.2,15.2c0.6,4.6,1,9.3,1.8,13.9c1.2,6.7,2.7,13.4,4.1,20.1
		c0.4,1.8,1,3.5,1.5,5.2C424,78.5,424.3,78.5,424.7,78.5"/>
	<path class="st0" d="M711.9,68.2c0.6-4.3,1.5-8.6,1.8-13c0.5-6.9,0.6-13.8,0.9-20.6c0.2-3.9,0.3-7.9,0.4-11.8
		c0.3-5.5,0.6-11,0.9-16.5c0.1-1.9,1.7-2,2.9-2.2c1.2-0.2,2.5-0.2,3.7,0c1.3,0.2,2.5,0.7,2.5,2.4c0.3,7.9,0.7,15.8,0.8,23.7
		c0.1,6.1,0,12.2-0.5,18.3c-0.5,7.3-0.9,14.6-3.2,21.6c-1.5,4.5-3.8,7.3-8.8,7.8c-5.2,0.5-10.8-1.4-12.7-5.3
		c-1.4-2.8-2.8-5.7-3.6-8.8c-1.3-5.1-2.3-10.2-3.1-15.4c-0.9-5.5-1.6-11-2.2-16.5c-0.4-4.2-0.7-8.4-0.9-12.6
		c-0.2-3.7-0.4-7.3-0.4-11c-0.1-3.3,2.6-5.4,5.9-4.7c4.7,1.1,5.8,2.6,6.7,8.5c0.8,5.8,1.8,11.6,2.5,17.5c0.5,4.2,0.8,8.4,1.4,12.5
		c1.2,8.3,2.6,16.5,3.9,24.8c0.1,0.5,0.3,0.9,0.5,1.4C711.5,68.2,711.7,68.2,711.9,68.2"/>
	<path class="st0" d="M676.2,52.2c-2.1-6.9-4.1-13.5-6.1-20.2c-0.1,0-0.2,0.1-0.4,0.1c-0.5,7.3-0.9,14.6-1.4,22.5
		C671.2,53.7,673.7,53,676.2,52.2 M656.2,69.3c0.4-6.3,0.7-12.6,1.1-18.9c0.4-5.1,0.8-10.2,1.3-15.3c0.7-6.9,1.4-13.7,2.1-20.6
		c0.2-1.7,0.2-3.4,0.5-5.1c0.2-0.8,0.9-1.7,1.6-2c4.2-1.8,10.7-1.7,13,3.5c1.4,3.1,2.9,6.1,3.9,9.3c4.5,15.3,8.9,30.6,13.3,45.9
		c1.1,4,1.9,8.1,2.6,12.2c0.1,0.7-0.7,2-1.5,2.4c-2.4,1.3-5.1,1.2-7.5,0c-0.7-0.3-1.4-1.1-1.6-1.8c-2.2-6.4-4.4-12.8-6.5-19.2
		c-0.5-1.6-1.1-2.3-3-1.7c-1.8,0.6-3.9,0.6-5.8,1c-0.6,0.1-1.4,0.9-1.5,1.5c-0.4,3.5-0.7,7-0.9,10.4c-0.2,2.1-0.3,4.3-0.5,6.4
		c0,0.3-0.2,0.5-0.3,0.8c-0.9,2.1-3.7,3.1-6.7,2.5c-2.3-0.5-3.4-1.9-3.4-4.4c0-2.3,0-4.6,0-6.9C656.3,69.3,656.2,69.3,656.2,69.3"/>
	<path class="st0" d="M458.7,55.2c2.7-1.1,5-1.9,7.2-2.8c-1.1-5.8-2.2-11.4-3.3-17c-0.1,0-0.3,0-0.4,0.1
		C461,41.9,459.9,48.2,458.7,55.2 M466.8,57.6c-2.9,0.9-5.3,1.6-7.7,2.5c-0.6,0.2-1.2,1-1.3,1.7c-1.1,5.8-2.1,11.7-3.1,17.6
		c-0.5,2.9-2,4.3-5,4.4c-0.9,0-1.7,0.1-2.6,0c-2.3-0.3-4.1-1.2-3.7-3.9c0.6-4.6,1.1-9.2,1.7-13.7c0.6-4.4,1.1-8.7,1.8-13.1
		c1.2-7.1,2.6-14.2,3.9-21.3c1.2-6.6,2.6-13.2,3.9-19.8c0.2-1,0.3-2,0.5-2.9c0.4-2.3,2.2-3.2,4.1-3.7c4.8-1.2,8.4,0.7,9.6,5.4
		c1.7,6.5,3,13.1,4.4,19.6c1.1,5.4,2.1,10.8,3.1,16.2c0.9,4.9,1.9,9.9,2.5,14.9c0.7,6.1,1.2,12.2,1.6,18.3c0,0.7-1.4,1.8-2.4,2.1
		c-1.1,0.4-2.4,0.2-3.6,0.1c-2.4-0.3-2.6-2.1-3.1-4.1c-1-5-2.4-9.9-3.6-14.8C467.3,61.3,467.1,59.5,466.8,57.6"/>
	<path class="st0" d="M320.1,10.6c0.4,3.3,0.6,6.6,1.4,9.8c2.2,9.8,4.9,19.6,6.9,29.4c1.1,5.6,1.6,11.4,1.8,17.2
		c0.1,4-0.7,8.1-3.3,11.4c-5.9,7.2-18.1,9.3-23.9,0.5c-3.3-5-5.8-10.6-8.7-16c-0.8-1.5,0.5-2.1,1.5-2.6c3.5-1.7,7.4-0.3,9.4,3.1
		c2.7,4.5,5.6,9,8.4,13.4c0.3,0,0.5,0,0.8,0c0.4-1.9,1.1-3.8,1.2-5.8c0.3-6.7-1.2-13.3-2.6-19.8c-2-9.6-4.5-19.1-6.3-28.7
		c-0.7-3.7-0.4-7.7-0.1-11.5c0.3-4.2,3-6.8,6.9-7.8c5.3-1.3,10.5-1.3,15.1,2.4c1.4,1.1,2.6,2.6,1.9,4.4c-0.6,1.6-2.1,2.5-4.1,2.6
		c-2.3,0.1-4.3-0.3-5.6-2.4C320.6,10.4,320.4,10.5,320.1,10.6"/>
	<path class="st0" d="M245.2,75.2c0.7-5.3-0.5-10.3-1.9-15.2c-2-7.1-4.4-14-6.5-21c-2.1-6.7-4.4-13.5-3.9-20.5
		c0.5-8.1,2.9-12.1,10.4-13.8c5.1-1.2,10.4-0.9,15,2.4c1.1,0.8,2.5,2.5,2.3,3.6c-0.3,1.9-2.1,3-4.2,3.3c-3,0.3-5.5-0.3-7.4-3.2
		c-1.8,2.4-2.1,5.2-1.8,7.6c0.8,8.6,3.7,16.6,6.3,24.8c2.5,7.7,4.7,15.6,5.2,23.8c0.2,3.8,0.4,7.7-0.1,11.5
		c-0.5,3.9-3.3,6.2-7.2,6.8c-5.3,0.8-10.2,0.5-14.1-4c-2.8-3.1-4.2-6.9-5.8-10.5c-0.7-1.6-1.2-3.2-1.8-4.8c-0.7-1.9,0.1-3.1,2.1-3.4
		c4.7-0.6,6.1,0.1,8.3,4.4c0.7,1.4,1.7,2.8,2.5,4.2C243.4,72.4,244.3,73.8,245.2,75.2"/>
	<path class="st0" d="M785.5,10.2c0.9,7,1.9,13.9,2.6,20.9c0.7,7,1,14.1,1.3,21.2c0.4,7.3,0.6,14.6,0.8,21.9
		c0.1,1.8-0.2,3.6-0.4,5.3c-0.1,0.5-0.5,1.1-0.9,1.4c-2.3,1.5-7.3,1.5-9.5-0.3c-0.7-0.5-1.1-1.7-1.2-2.6c-0.9-7.3-1.8-14.7-2.6-22
		c-0.5-4.4-0.6-8.8-0.9-13.3c-0.4-7.3-0.9-14.6-1.3-21.8c-0.2-3.1-0.4-6.3-0.7-9.7c-1.6,0.2-3.2,0.4-4.8,0.5
		c-3.6,0.2-7.1,0-10.3-1.6c-0.6-0.3-1.4-1.2-1.4-1.8c0-0.6,0.9-1.6,1.5-1.7c2.2-0.6,4.5-1,6.8-1.2c3.8-0.4,7.7-0.6,11.5-0.9
		c6.5-0.5,13.1-0.9,19.6-1.2c1.6-0.1,3.2,0.4,4.7,0.9c0.6,0.2,1.3,1,1.4,1.6c0,0.6-0.6,1.5-1.2,1.7c-1.7,0.6-3.5,1-5.3,1.3
		C792,9.2,788.7,9.7,785.5,10.2"/>
	<path class="st0" d="M639.3,10.6c-1,5.9,0.3,11.1,1.8,16.4c2.6,9.4,5.3,18.7,7.7,28.2c1.7,6.6,2.4,13.4,1.9,20.2
		c-0.2,3-2.4,6.4-7.6,7.8c-4.8,1.3-13.5-2.7-15.5-5.5c-1.5-2.1-1.2-3,1.3-3.9c2.9-0.9,5.5-0.3,7.8,1.7c0.4,0.3,0.7,0.6,1.7,1.5
		c0.1-2.6,0.6-4.7,0.2-6.6c-1.6-7.4-3.4-14.8-5.3-22.2c-2.1-8.1-4.7-16-6.4-24.1c-0.9-4.1-0.6-8.6-0.1-12.8c0.6-4.8,3.9-7.4,8.6-7.7
		c4.8-0.3,9.3,0.6,13.3,3.5c1,0.7,1.7,2.1,2.1,3.3c0.4,1.3-0.2,2.3-1.5,2.9c-3.1,1.4-5.8,0.7-8.3-1.2
		C640.4,11.6,640,11.2,639.3,10.6"/>
	<path class="st0" d="M144.1,12.3c-2.9-0.6-5.4-1.1-7.8-1.7c-0.6-0.2-1-1-1.5-1.6c0.6-0.5,1-1.3,1.7-1.5c1.4-0.5,2.9-0.7,4.3-0.9
		c4.6-0.7,9.2-1.7,13.8-1.9c5.7-0.3,11.6-1.1,17.2,0.6c0.6,0.2,1.6,1,1.5,1.4c-0.1,0.7-0.7,1.6-1.3,1.8c-1.4,0.5-3,0.9-4.5,1
		c-3.7,0.4-7.5,0.6-11.2,0.9c1.1,6,2.2,11.7,3.1,17.5c0.7,4.3,1.3,8.7,1.9,13c0.9,6.1,1.7,12.2,2.5,18.3c0.5,3.9,0.9,7.8,1.4,11.6
		c0.3,2.5,0.6,5.1,0.9,7.6c0.1,1.2,0,2.3-0.1,3.5c0,0.5-0.4,1-0.4,1.4c0.2,3,0.2,3-2.9,3.8c-3.4,0.9-5.5-0.6-7.1-3.5
		c-3-5.6-2.6-11.8-3.8-17.7c-1-4.9-1.8-9.9-2.6-14.8c-0.7-4.6-1.2-9.3-1.8-13.9c-0.7-4.9-1.4-9.8-2.1-14.7c-0.4-2.7-0.6-5.5-0.9-8.3
		C144.4,13.5,144.2,12.7,144.1,12.3"/>
	<path class="st0" d="M611.8,73.3c-0.8-3.6-1.4-7.3-2.3-10.9c-2.6-9.7-5.6-19.2-8-29c-1.1-4.5-1.6-9.2-2-13.9
		c-0.3-2.6-0.5-5.3,0.1-7.8c0.9-4.4,2.9-6.1,8.4-7c3.7-0.6,7.6,0,10.7,2.5c0.9,0.7,1.9,2.1,1.8,3c-0.1,1-1.3,2.1-2.3,2.7
		c-1.9,1.1-5.5,0.4-7-1.1c-1.4,3-0.9,6.1-0.1,9c2.8,10.5,5.8,20.9,8.9,31.3c1.9,6.4,3.6,12.8,3.8,19.5c0.1,3.4-1,6.6-3.2,9
		c-2,2.2-5,2.7-8,2.3c-5.6-0.7-8.5-4.5-10.8-9c-1.3-2.6-2.7-5.1-4.1-7.7c-1-1.9-0.4-3.1,1.7-3.5c3.7-0.7,5.8,0.4,7.7,3.7
		c1.3,2.3,2.8,4.6,4.2,6.9C611.3,73.5,611.6,73.4,611.8,73.3"/>
	<path class="st0" d="M517.9,78.7c-1.6,0.7-3.2,1.5-4.9,1.9c-4,1.1-8,2-12.1,2.8c-3.2,0.6-6.3,0.5-9.4-0.7c-3-1.2-2.3-3.9-2.7-6.2
		c-0.8-5.8-1.5-11.7-2.2-17.5c-0.5-4.2-0.9-8.3-1.3-12.5c-0.6-5.6-1.2-11.2-1.7-16.8c-0.2-2-0.3-4-0.5-6c-0.3-4.4-0.7-8.8-0.8-13.3
		c-0.1-1.8,0.1-3.6,0.5-5.3c0.5-2.3,3.9-3.9,7-2.8c1.3,0.5,2.9,1.7,3.2,2.9c1.3,4.7,2.4,9.4,3.1,14.3c1,7.3,1.5,14.7,2.2,22.1
		c0.6,6.7,1.2,13.4,1.7,20c0.4,4.5,0.6,9,0.9,13.5c0.1,1.4,0.7,1.7,1.9,1.6c3.8-0.3,7.5-0.7,11.3-0.7c1.3,0,2.6,1.1,3.9,1.6
		L517.9,78.7z"/>
	<path class="st0" d="M750.2,73.6c3.4-0.5,6.9-1.1,10.3-1.5c0.9-0.1,1.9,0.1,2.7,0.5c0.5,0.3,1,1,1.1,1.6c0,0.4-0.6,1.1-1.1,1.3
		c-4.5,1.8-8.9,3.9-13.5,5.2c-2.4,0.7-5.3,0.5-7.8,0c-3.1-0.5-3.7-1.9-3.8-5.4c-0.4-7.2-0.9-14.3-1.3-21.5
		c-0.3-4.1-0.5-8.1-0.9-12.2c-0.5-5.5-1.1-11-1.7-16.6c-0.2-2.1-0.4-4.3-0.5-6.4c-0.2-4.5-0.2-9.1-0.5-13.6
		c-0.2-2.6,1.2-3.7,3.5-3.8c5.4-0.3,6.5,0.8,7.6,5.6c1.1,4.7,1.7,9.6,2.2,14.5c0.8,6.8,1.5,13.7,2.2,20.6c0.3,2.6,0.4,5.3,0.4,7.9
		c0.2,6.5,0.3,12.9,0.5,19.4C749.8,71,750.1,72.5,750.2,73.6"/>
	<path class="st0" d="M223.6,77.7c-0.1,1.6-0.2,3.5-0.5,5.3c-0.1,0.7-1,1.6-1.7,1.7c-1.9,0.1-3.8,0-5.7-0.2c-0.5-0.1-1.1-1-1.4-1.6
		c-3-5.5-3-11.7-4.1-17.7c-1.4-7.2-2.4-14.5-3.5-21.8c-0.7-5.1-1.2-10.2-1.8-15.2c-0.5-4.4-1.1-8.8-1.2-13.2
		c-0.1-2.1,0.8-4.1,1.2-6.2c0.2-0.8,0.2-1.5,0.5-2.3c0.3-0.7,0.7-2,1.1-2c2.1-0.2,4.3-0.1,6.4,0c0.4,0,0.8,0.6,1,1
		c1,3,2.2,6.1,2.8,9.2c0.9,4.4,1.5,9,2,13.5c0.7,5.8,1.2,11.6,1.7,17.4c0.3,3.3,0.6,6.7,0.9,10c0.5,5,1.1,10,1.7,15
		C223.4,73,223.5,75.3,223.6,77.7"/>
	<path class="st0" d="M827.1,6.3c-3,1.6-5.5,3.3-8.2,4.1c-1.9,0.6-4.2,0.4-6.2,0c-2.3-0.5-2.5-1.6-1.3-3.6c1.6-2.8,4.4-3.9,7.2-5
		c5-2,10.1-2.3,15.4-0.9c7.2,1.8,8.5,6.7,6.6,12.8c-1.4,4.4-3.4,8.7-4.8,13.1c-1.8,5.5-3.2,11.1-4.7,16.7c-0.8,2.9-1.3,5.8-2.3,8.6
		c-0.3,1-1.4,2.4-2.3,2.5c-2.7,0.3-5.5,0.3-8.2,0c-1.3-0.1-1.8-1.6-2-3.1c-1.3-11,1.2-21.1,6.1-30.8c1.8-3.5,3-7.3,4.4-10.9
		C827.1,8.7,827,7.7,827.1,6.3"/>
	<path class="st0" d="M823.1,79.8c-1.9-0.6-3.9-1-5.6-1.8c-1.7-0.8-1.8-2.2-0.5-3.6c3.1-3.2,9.2-2.9,12.2-1.5c2.3,1.1,2.3,4,0.1,5.1
		C827.4,78.9,825.3,79.2,823.1,79.8"/>
</g>
</svg>
